<svg width="72" height="59" viewBox="0 0 72 59" fill="none" xmlns="http://www.w3.org/2000/svg">
<path d="M48.7058 9.91422L48.1599 9.36329C48.1468 9.35332 48.1337 9.33836 48.1207 9.32589C46.7806 8.05701 45.4511 6.77816 44.1136 5.50928C43.9439 5.34724 43.8681 5.19019 43.8707 4.95586C43.8707 4.86861 43.8707 4.78385 43.8707 4.6966V4.65173L43.8733 4.08584C43.8759 3.06376 43.8733 2.04417 43.8733 1.01959C43.8733 0.289175 43.5729 0 42.8102 0C37.9203 0 33.0303 0 28.1404 0C27.7538 0 27.4848 0.0722938 27.315 0.24181C27.1818 0.373933 27.106 0.563393 27.0825 0.82016C27.0825 0.825146 27.0825 0.827639 27.0825 0.832624C27.0799 0.889961 27.0773 0.952283 27.0773 1.01959V1.24894C27.0773 1.44089 27.0773 1.63035 27.0773 1.8223C27.0747 2.88178 27.0747 3.94126 27.0799 4.99824C27.0799 5.20016 27.025 5.34226 26.8709 5.48685C26.0011 6.31199 25.1365 7.13963 24.2692 7.96727C23.8095 8.40352 23.3524 8.83978 22.89 9.27604C22.7594 9.40068 22.6288 9.52283 22.4982 9.64498C22.1769 9.94662 22.0306 10.2682 22.0332 10.702C22.0358 11.6742 22.0358 12.6489 22.0385 13.6211C22.0411 17.0887 22.0385 20.5588 22.0385 24.0265C22.0385 28.5062 22.0385 32.9834 22.0385 37.4631C22.0385 38.1412 22.3598 38.4428 23.0676 38.4428H47.768C48.6457 38.4428 48.9095 38.1885 48.9095 37.3509C48.9095 28.4289 48.9095 19.5093 48.9121 10.5873C48.9148 10.3305 48.8521 10.1112 48.7058 9.91422ZM42.8415 6.92524C42.9121 6.85793 42.9617 6.66349 43.1393 6.83301C43.9987 7.65317 44.8633 8.47333 45.7619 9.32589C45.775 9.33836 45.788 9.35082 45.8037 9.36578H45.5138V9.35581H40.2947C40.3078 9.34334 40.3208 9.33088 40.3339 9.31841C41.1933 8.49576 42.0161 7.70801 42.8415 6.92524ZM28.7726 2.11397C28.7726 2.04666 28.7699 1.97935 28.7699 1.90955C28.7647 1.63533 28.8561 1.58548 29.1226 1.58548C30.3372 1.58797 31.5545 1.58797 32.7691 1.58797H33.1009C33.302 1.58797 33.5005 1.58797 33.6991 1.58797C36.4183 1.59046 39.1375 1.58797 41.8542 1.58548C42.1023 1.58548 42.1885 1.63035 42.1833 1.88712C42.1702 2.53028 42.165 3.17345 42.1728 3.81661C42.1728 4.01106 42.1781 4.20301 42.1807 4.39745C42.1807 4.43485 42.1807 4.47224 42.1833 4.50963C42.1885 4.77388 42.0919 4.80629 41.8515 4.80629C39.7305 4.79881 37.6068 4.8013 35.4858 4.8013C33.3778 4.8013 31.2671 4.79382 29.1592 4.80878C28.8196 4.81127 28.7569 4.71904 28.7673 4.4174C28.7908 3.65457 28.7882 2.88427 28.7726 2.11397ZM25.2409 9.2885C26.0298 8.5506 26.8135 7.8501 27.5318 7.09227C28.0385 6.55629 28.5714 6.37182 29.3237 6.3793C33.1714 6.4142 37.0191 6.39176 40.8668 6.38927C40.8877 6.38927 40.9059 6.40921 40.966 6.44162C40.7205 6.67346 40.4828 6.89533 40.2477 7.11969C39.4849 7.8501 38.7222 8.58052 37.9621 9.31343C37.949 9.32589 37.9359 9.33836 37.9229 9.35082C37.8968 9.37824 37.868 9.40567 37.8393 9.43309C37.727 9.54277 37.6173 9.61507 37.437 9.61507C33.3229 9.61008 29.2114 9.61008 25.0973 9.61008C25.0633 9.61008 25.0294 9.59762 24.9301 9.57767C25.0189 9.49292 25.1077 9.41065 25.1965 9.32839C25.2122 9.31343 25.2279 9.30096 25.2409 9.2885ZM37.1523 36.4734C37.1523 36.5906 37.1418 36.6754 37.1131 36.7352C37.0635 36.8349 36.9564 36.8673 36.75 36.8648C36.6612 36.8648 36.5698 36.8648 36.4784 36.8648H36.4052C36.2093 36.8648 36.0108 36.8648 35.8149 36.8648C32.0142 36.8549 28.2136 36.8573 24.4129 36.8648H24.1203C23.9088 36.8648 23.8069 36.8299 23.7625 36.7153C23.7494 36.6779 23.7416 36.6305 23.7364 36.5756C23.7337 36.5507 23.7337 36.5233 23.7337 36.4934C23.7442 32.3377 23.739 28.1846 23.739 24.0289C23.739 19.8858 23.7442 15.7451 23.7311 11.6019C23.7311 11.2654 23.8173 11.1956 24.1595 11.1956C24.8831 11.1981 25.6093 11.1981 26.3328 11.2005H26.5C26.6437 11.2005 26.7899 11.2005 26.931 11.2005C27.0276 11.2005 27.1243 11.2005 27.2236 11.2005H28.1012C28.8692 11.2005 29.6372 11.203 30.4078 11.203H31.6668C31.8288 11.203 31.9907 11.203 32.1553 11.203H32.7665C32.8788 11.203 32.9912 11.203 33.1009 11.203H33.7226C33.9002 11.203 34.0778 11.203 34.2554 11.203C35.0861 11.203 35.9168 11.2005 36.7474 11.1981C37.0765 11.1981 37.1523 11.2753 37.1523 11.5844C37.1445 19.8808 37.1445 28.1771 37.1523 36.4734ZM47.2169 36.5183C47.2169 36.8075 47.1333 36.8623 46.8486 36.8623C44.3069 36.8524 41.7627 36.8499 39.2185 36.8623C38.9077 36.8623 38.8345 36.7826 38.8371 36.4909C38.8476 32.3328 38.8424 28.1771 38.8424 24.019C38.8424 19.8733 38.845 15.7301 38.8371 11.5844C38.8371 11.2753 38.9129 11.1931 39.242 11.1956C41.7862 11.208 44.3278 11.2055 46.8721 11.1956C47.1437 11.1956 47.2169 11.2504 47.2169 11.5196C47.209 19.8534 47.209 28.1871 47.2169 36.5183ZM40.2947 9.35332L45.5138 9.36329V9.35332H40.2947Z" fill="white"/>
<path d="M36.7941 35.1474C36.6034 35.1474 36.4153 35.14 36.2273 35.1499C36.0967 35.1574 36.0653 35.12 36.0679 35.0078C36.0758 34.589 36.0705 34.1702 36.0705 33.7514C36.0679 33.5121 35.9556 33.4074 35.6787 33.4074C35.266 33.4074 34.8559 33.4024 34.4458 33.4099C34.2969 33.4124 34.2629 33.375 34.2629 33.2479C34.2682 25.8589 34.2682 18.4725 34.2629 11.0861L46.2997 9.75489L45.9523 9.62027H45.6597L36.222 9.75987C35.5168 9.75987 34.7044 9.76735 33.9991 9.75987C31.0317 9.72747 27.7901 9.94435 24.8227 9.93936L23.7595 10.2211C23.2815 10.2211 24.1304 9.20147 23.6524 9.19897L23.4121 9.75738C24.3264 9.75987 25.2432 9.75987 26.1575 9.75987C26.4396 9.75987 26.4056 9.73495 26.4056 9.98174V11.0836C26.4082 18.4526 26.4056 25.8215 26.4056 33.1905C26.4056 33.2179 26.4004 33.2479 26.4082 33.2753C26.4265 33.385 26.3664 33.4074 26.2541 33.4049C25.8936 33.4024 25.5358 33.4024 25.1779 33.4024C24.8357 33.4024 24.726 33.4996 24.7234 33.8038C24.7208 34.0556 24.726 34.3073 24.7234 34.5591C24.7208 34.7486 24.7965 35.0004 24.6894 35.11C24.5771 35.2197 24.2846 35.1325 24.0704 35.1425H24.0495C23.7595 35.1449 23.6368 35.2472 23.6368 35.5064V37.0021C23.6368 37.3586 23.736 37.4459 24.1435 37.4459H36.6583C36.7053 37.4459 36.7497 37.4484 36.7941 37.4459C37.0214 37.4384 37.152 37.3212 37.152 37.1243V35.4566C37.152 35.2521 37.037 35.1499 36.7941 35.1474ZM32.6199 28.4391C32.6199 28.5263 32.6225 28.5812 32.4815 28.5812C31.1728 28.5762 29.8615 28.5787 28.5502 28.5787C28.5267 28.5787 28.5032 28.5762 28.4561 28.5737C29.8432 27.2899 31.212 26.0235 32.5833 24.7571C32.6408 24.7845 32.6173 24.8294 32.6173 24.8643C32.6173 26.0534 32.6173 27.245 32.6199 28.4391ZM32.6173 33.2678C32.6173 33.3426 32.633 33.4074 32.4971 33.4074C31.1728 33.4049 29.8484 33.4049 28.4588 33.4049C29.8536 32.1161 31.2146 30.8597 32.5755 29.6033C32.6303 29.6407 32.6147 29.6756 32.6147 29.708C32.6173 30.8946 32.6173 32.0812 32.6173 33.2678ZM28.0278 9.89449C28.0278 9.80724 28.0382 9.75738 28.161 9.75738C29.4801 9.76237 30.794 9.75987 32.1131 9.76237C32.1184 9.76237 32.1236 9.76735 32.1523 9.79228C31.6874 10.2236 31.2172 10.6523 30.7522 11.0861C29.8536 11.9187 28.9472 12.7538 28.0304 13.6014C28.0304 12.7464 28.0304 11.9112 28.0278 11.0836C28.0304 10.6872 28.0278 10.2909 28.0278 9.89449ZM32.6199 18.7467C32.6225 18.8415 32.6095 18.8863 32.4762 18.8863C31.1858 18.8813 29.8928 18.8838 28.6024 18.8838C28.5711 18.8838 28.5424 18.8789 28.477 18.8714C29.8615 17.5925 31.2198 16.3361 32.5833 15.0772C32.633 15.1345 32.6173 15.1819 32.6173 15.2268C32.6173 16.3984 32.6173 17.5726 32.6199 18.7467ZM32.6199 23.5804C32.6225 23.7026 32.5833 23.73 32.4501 23.73C31.1519 23.725 29.8536 23.7275 28.5554 23.7275C28.5371 23.7275 28.5215 23.725 28.4692 23.7176C29.8563 22.4337 31.2172 21.1748 32.5781 19.9134C32.6408 19.9433 32.6147 19.9882 32.6147 20.0231C32.6173 21.2097 32.6147 22.3963 32.6199 23.5804ZM28.0304 18.465V18.3329C28.0304 17.1463 28.0304 15.9597 28.0278 14.7731C28.0278 14.6883 28.0199 14.626 28.161 14.626C29.4592 14.631 30.7574 14.6285 32.0557 14.6285C32.0792 14.6285 32.1027 14.631 32.1654 14.6385C30.7862 15.9173 29.4279 17.1712 28.0304 18.465ZM28.2341 19.4522C29.4853 19.4597 30.7392 19.4547 31.993 19.4547H32.1915C30.7966 20.746 29.4279 22.0099 28.0278 23.3037V23.1193C28.0278 21.9601 28.0304 20.8009 28.0225 19.6442C28.0251 19.5021 28.0513 19.4497 28.2341 19.4522ZM28.2002 24.2785C29.5167 24.2809 30.8332 24.2809 32.2072 24.2809C30.8071 25.5772 29.4357 26.8436 28.0278 28.1474V25.7792C28.0278 25.3329 28.033 24.8842 28.0251 24.438C28.0251 24.3208 28.0591 24.2785 28.2002 24.2785ZM28.1349 29.1496C29.4644 29.1496 30.7914 29.1496 32.1784 29.1496C30.7862 30.4359 29.4279 31.6898 28.0278 32.9861C28.0278 31.7023 28.0278 30.4758 28.0251 29.2518C28.0278 29.1845 28.0434 29.1496 28.1349 29.1496ZM32.6173 13.9031C32.6173 13.9803 32.6486 14.0576 32.4945 14.0576C31.1545 14.0526 29.8171 14.0551 28.4274 14.0551C29.5115 13.053 30.5798 12.0683 31.6377 11.0886C31.9486 10.7994 32.262 10.5127 32.5729 10.2236C32.6356 10.2634 32.6147 10.3083 32.6147 10.3457V11.0886C32.6173 12.0234 32.6173 12.9632 32.6173 13.9031ZM25.541 33.9733C27.1605 33.9783 28.7801 33.9758 30.397 33.9758C32.0087 33.9758 33.6203 33.9783 35.232 33.9733C35.394 33.9733 35.441 34.0032 35.4332 34.1503C35.4201 34.4295 35.4201 34.7112 35.4332 34.9929C35.441 35.1275 35.3914 35.1499 35.2503 35.1499C32.5206 35.1474 29.7936 35.1474 27.0665 35.1474C26.5519 35.1474 26.0373 35.1449 25.5201 35.1499C25.3921 35.1524 25.3582 35.1225 25.3608 35.0078C25.3712 34.7162 25.3738 34.422 25.3582 34.1328C25.3529 33.9957 25.3999 33.9733 25.541 33.9733ZM36.3344 36.88C34.357 36.875 32.377 36.8775 30.4022 36.8775C28.4326 36.8775 26.4605 36.875 24.4883 36.88C24.3786 36.8825 24.3211 36.865 24.295 36.8177C24.2767 36.7903 24.2741 36.7479 24.2767 36.688C24.2846 36.5534 24.2872 36.4138 24.2846 36.2767C24.2846 36.1296 24.282 35.9776 24.2793 35.828C24.2767 35.7432 24.3055 35.6984 24.4099 35.7083C24.4491 35.7108 24.4883 35.7083 24.5275 35.7083H36.2769C36.5799 35.7083 36.5198 35.7058 36.5224 35.9327C36.5224 36.0474 36.5198 36.162 36.5198 36.2767C36.5172 36.4188 36.5172 36.5634 36.525 36.7055C36.5277 36.7554 36.5224 36.7903 36.5068 36.8177C36.4885 36.865 36.4362 36.88 36.3344 36.88Z" fill="white"/>
<path d="M27.1393 9.93661C27.1393 9.7995 27.1655 9.74466 27.3379 9.75213C27.4632 9.75712 27.5024 9.78454 27.5024 9.89921C27.4998 10.2931 27.4998 10.6895 27.4998 11.0833C27.4972 12.088 27.4972 13.0926 27.4972 14.0972V33.2351C27.4972 33.3847 27.33 33.4695 27.1785 33.3997C27.1419 33.3822 27.1419 33.3573 27.1419 33.3299C27.1393 33.285 27.1419 33.2376 27.1419 33.1928V21.5834C27.1419 18.0834 27.1419 14.5833 27.1367 11.0833C27.1419 10.7019 27.1393 10.318 27.1393 9.93661Z" fill="white"/>
<path d="M33.7225 33.2304C33.7225 33.3426 33.7303 33.4174 33.5474 33.4149C33.3829 33.4124 33.362 33.3626 33.362 33.2379C33.3672 29.3565 33.3646 25.4726 33.3646 21.5912C33.3646 18.0886 33.3672 14.5861 33.362 11.0861C33.362 10.7047 33.3594 10.3258 33.3594 9.94438C33.3594 9.79232 33.3986 9.74246 33.5736 9.75742C33.6807 9.7649 33.7329 9.78982 33.7199 9.88705C33.7146 9.90948 33.7172 9.93192 33.7172 9.95436V11.0861C33.7225 18.4651 33.7225 25.849 33.7225 33.2304Z" fill="white"/>
<path d="M42.5281 19.6611H39.8428V21.5856H42.5281V19.6611Z" fill="white"/>
<path d="M42.5281 22.2491H39.8428V24.1736H42.5281V22.2491Z" fill="white"/>
<path d="M42.5281 24.8367H39.8428V26.7612H42.5281V24.8367Z" fill="white"/>
<path d="M42.5281 27.4267H39.8428V29.3512H42.5281V27.4267Z" fill="white"/>
<path d="M42.5281 30.0142H39.8428V31.9387H42.5281V30.0142Z" fill="white"/>
<path d="M42.5281 32.6046H39.8428V34.5291H42.5281V32.6046Z" fill="white"/>
<path d="M46.2995 19.6611H43.6143V21.5856H46.2995V19.6611Z" fill="white"/>
<path d="M46.2995 22.2491H43.6143V24.1736H46.2995V22.2491Z" fill="white"/>
<path d="M42.5075 14.4838H39.8223V16.4083H42.5075V14.4838Z" fill="white"/>
<path d="M42.5075 17.0714H39.8223V18.9959H42.5075V17.0714Z" fill="white"/>
<path d="M46.2771 14.4838H43.5918V16.4083H46.2771V14.4838Z" fill="white"/>
<path d="M46.2771 17.0714H43.5918V18.9959H46.2771V17.0714Z" fill="white"/>
<path d="M46.2995 24.8367H43.6143V26.7612H46.2995V24.8367Z" fill="white"/>
<path d="M46.2995 27.4267H43.6143V29.3512H46.2995V27.4267Z" fill="white"/>
<path d="M46.2995 30.0142H43.6143V31.9387H46.2995V30.0142Z" fill="white"/>
<path d="M46.2995 32.6046H43.6143V34.5291H46.2995V32.6046Z" fill="white"/>
<path d="M5.23211 49.8253C4.50072 49.8253 3.81634 49.7057 3.17897 49.4639C2.54161 49.2221 1.98523 48.888 1.51243 48.4568C1.03702 48.0255 0.666095 47.5244 0.399657 46.9461C0.133219 46.3702 0 45.747 0 45.0764C0 44.4133 0.133219 43.7951 0.399657 43.2242C0.666095 42.6508 1.03702 42.1498 1.51243 41.721C1.98784 41.2897 2.54161 40.9532 3.17375 40.7089C3.80589 40.4646 4.49288 40.3424 5.23473 40.3424C5.92956 40.3424 6.53035 40.4222 7.03188 40.5792C7.53341 40.7363 8.03755 40.998 8.54431 41.362C8.61745 41.4094 8.6723 41.4592 8.7141 41.5091C8.75589 41.5614 8.78201 41.6113 8.79507 41.6636C8.80813 41.716 8.81597 41.7758 8.81597 41.8481C8.81597 41.9977 8.75589 42.1223 8.63312 42.222C8.51035 42.3218 8.36407 42.3766 8.19167 42.3891C8.01927 42.4015 7.85209 42.3517 7.69014 42.242C7.35578 41.9902 7.01098 41.7958 6.65312 41.6611C6.29525 41.5265 5.82507 41.4592 5.23734 41.4592C4.70446 41.4592 4.20293 41.5539 3.73275 41.7434C3.26256 41.9329 2.84984 42.1946 2.49198 42.5262C2.13412 42.8577 1.85723 43.2416 1.65871 43.6804C1.46019 44.1191 1.36092 44.5853 1.36092 45.0839C1.36092 45.5899 1.46019 46.0611 1.65871 46.4998C1.85723 46.9386 2.13673 47.3225 2.49198 47.654C2.84723 47.9856 3.26256 48.2449 3.73275 48.4293C4.20293 48.6138 4.70446 48.7085 5.23734 48.7085C5.69707 48.7085 6.1333 48.6387 6.54602 48.5016C6.95613 48.3645 7.35317 48.1726 7.73193 47.9283C7.89388 47.8261 8.05584 47.7812 8.21257 47.7912C8.36929 47.8036 8.50513 47.8585 8.61222 47.9582C8.72193 48.0579 8.77417 48.1925 8.77417 48.367C8.77417 48.4468 8.75589 48.5241 8.71932 48.5988C8.68275 48.6736 8.6279 48.7434 8.55737 48.8058C8.0689 49.1448 7.54647 49.4016 6.99008 49.5761C6.43109 49.7381 5.84597 49.8253 5.23211 49.8253Z" fill="white"/>
<path d="M11.577 49.7083C11.3785 49.7083 11.2139 49.651 11.0807 49.5363C10.9475 49.4216 10.8848 49.2771 10.8848 49.105V43.8351C10.8848 43.6531 10.9501 43.5085 11.0807 43.3963C11.2113 43.2866 11.3758 43.2293 11.577 43.2293C11.8669 43.2293 12.1099 43.3515 12.3084 43.5958L15.1138 47.1357L17.9219 43.5958C18.1204 43.3515 18.3659 43.2293 18.6533 43.2293C18.8622 43.2293 19.0294 43.2842 19.1548 43.3963C19.2802 43.506 19.3455 43.6531 19.3455 43.8351V49.105C19.3455 49.2795 19.2828 49.4216 19.1548 49.5363C19.0268 49.651 18.8622 49.7083 18.6533 49.7083C18.4547 49.7083 18.2902 49.651 18.1596 49.5363C18.029 49.4216 17.9637 49.2771 17.9637 49.105V44.7948L18.3163 44.8896L15.8217 47.9683C15.5945 48.245 15.3515 48.3821 15.0903 48.3771C14.8291 48.3721 14.5888 48.2375 14.372 47.9683L11.9166 44.8896L12.2692 44.7948V49.105C12.2692 49.2795 12.2065 49.4216 12.0785 49.5363C11.9505 49.651 11.7833 49.7083 11.577 49.7083Z" fill="white"/>
<path d="M25.2693 49.7556C24.5196 49.7556 23.8535 49.616 23.2684 49.3343C22.6859 49.0551 22.2288 48.6662 21.8996 48.1751C21.5705 47.6816 21.4033 47.1157 21.4033 46.475C21.4033 45.8268 21.56 45.2585 21.8709 44.7649C22.1817 44.2713 22.6154 43.8849 23.1665 43.6057C23.7177 43.3265 24.3498 43.1844 25.0655 43.1844C25.7708 43.1844 26.3768 43.3215 26.8836 43.5932C27.3903 43.8649 27.7769 44.2414 28.0434 44.7175C28.3098 45.1961 28.443 45.7446 28.443 46.3703C28.443 46.5199 28.383 46.6445 28.268 46.7442C28.1505 46.8439 28.0016 46.8913 27.8213 46.8913H22.3541V45.944H27.7769L27.2206 46.2756C27.2101 45.8817 27.1213 45.5277 26.9489 45.2161C26.7765 44.9045 26.5336 44.6577 26.2175 44.4757C25.9014 44.2937 25.5174 44.204 25.0655 44.204C24.5509 44.204 24.1095 44.3037 23.7438 44.5006C23.3781 44.6976 23.1012 44.9693 22.9105 45.3108C22.7198 45.6548 22.6258 46.0437 22.6258 46.4775C22.6258 46.9113 22.7381 47.2977 22.9654 47.6367C23.19 47.9757 23.5035 48.245 23.9005 48.4419C24.2976 48.6388 24.7547 48.7385 25.2693 48.7385C25.5488 48.7385 25.8361 48.6937 26.1313 48.6014C26.4239 48.5117 26.6616 48.407 26.8444 48.2873C26.9802 48.2001 27.1265 48.1552 27.2859 48.1502C27.4452 48.1452 27.581 48.1876 27.6986 48.2749C27.8527 48.392 27.9337 48.5242 27.9415 48.6662C27.9493 48.8083 27.8788 48.9305 27.7247 49.0327C27.4165 49.2446 27.0351 49.4191 26.578 49.5537C26.1208 49.6883 25.6846 49.7556 25.2693 49.7556Z" fill="white"/>
<path d="M30.8953 49.7207C30.6968 49.7207 30.5323 49.6634 30.399 49.5487C30.2684 49.434 30.2031 49.2894 30.2031 49.1174V43.8475C30.2031 43.6655 30.2684 43.5209 30.399 43.4087C30.5296 43.299 30.6942 43.2417 30.8953 43.2417C31.1017 43.2417 31.2715 43.2965 31.3969 43.4087C31.5223 43.5184 31.5876 43.6655 31.5876 43.8475V49.1174C31.5876 49.2919 31.5249 49.434 31.3969 49.5487C31.2715 49.6634 31.1043 49.7207 30.8953 49.7207ZM35.4248 49.7207C35.2263 49.7207 35.0617 49.6634 34.9311 49.5487C34.8005 49.434 34.7352 49.2894 34.7352 49.1174V45.7321C34.7352 45.236 34.5941 44.867 34.3146 44.6252C34.0351 44.3834 33.6694 44.2638 33.2175 44.2638C32.7473 44.2638 32.3581 44.4059 32.0525 44.6901C31.7443 44.9742 31.5928 45.3382 31.5928 45.7794H30.7386C30.7386 45.2659 30.8562 44.8147 31.0913 44.4233C31.3263 44.0319 31.6502 43.7278 32.0682 43.5059C32.4835 43.2841 32.9589 43.1744 33.4918 43.1744C34.0064 43.1744 34.4635 43.2741 34.8606 43.471C35.2576 43.668 35.5685 43.9596 35.7905 44.341C36.0125 44.725 36.1222 45.1886 36.1222 45.7321V49.1174C36.1222 49.2919 36.0595 49.434 35.9315 49.5487C35.8009 49.6634 35.6338 49.7207 35.4248 49.7207ZM39.9412 49.7207C39.7427 49.7207 39.5781 49.6634 39.4475 49.5487C39.3169 49.434 39.2516 49.2894 39.2516 49.1174V45.7321C39.2516 45.236 39.1105 44.867 38.831 44.6252C38.5515 44.3834 38.1858 44.2638 37.7313 44.2638C37.2611 44.2638 36.8745 44.4059 36.5715 44.6901C36.2685 44.9742 36.117 45.3382 36.117 45.7794H34.9912C34.9912 45.2659 35.1166 44.8147 35.3699 44.4233C35.6233 44.0319 35.9786 43.7278 36.4331 43.5059C36.8902 43.2841 37.4126 43.1744 38.0004 43.1744C38.515 43.1744 38.9721 43.2741 39.3691 43.471C39.7662 43.668 40.077 43.9596 40.299 44.341C40.5211 44.725 40.6308 45.1886 40.6308 45.7321V49.1174C40.6308 49.2919 40.5681 49.434 40.4401 49.5487C40.3147 49.6634 40.1475 49.7207 39.9412 49.7207Z" fill="white"/>
<path d="M46.0155 49.756C45.3546 49.756 44.7643 49.6114 44.2392 49.3247C43.7142 49.0355 43.3015 48.6466 42.9985 48.153C42.6954 47.6594 42.5439 47.101 42.5439 46.4778C42.5439 45.8546 42.7085 45.2937 43.0403 44.7976C43.3694 44.299 43.8187 43.9076 44.3829 43.6185C44.9471 43.3293 45.5819 43.1872 46.2871 43.1872C46.9924 43.1872 47.6246 43.3318 48.1862 43.6185C48.7478 43.9076 49.1918 44.299 49.521 44.7976C49.8501 45.2937 50.0147 45.8546 50.0147 46.4778H49.487C49.487 47.101 49.3355 47.6594 49.0325 48.153C48.7295 48.6466 48.3168 49.038 47.7917 49.3247C47.2667 49.6114 46.6737 49.756 46.0155 49.756ZM46.2871 48.689C46.7469 48.689 47.1596 48.5918 47.5201 48.3998C47.8805 48.2054 48.1653 47.9411 48.3742 47.6071C48.5832 47.2705 48.6851 46.8941 48.6851 46.4753C48.6851 46.049 48.5806 45.6676 48.3742 45.3336C48.1653 44.997 47.8805 44.7328 47.5201 44.5408C47.1596 44.3464 46.7469 44.2517 46.2871 44.2517C45.8352 44.2517 45.4251 44.3489 45.0594 44.5408C44.6937 44.7353 44.4038 44.9995 44.1922 45.3336C43.9806 45.6701 43.8735 46.049 43.8735 46.4753C43.8735 46.8941 43.9806 47.2705 44.1922 47.6071C44.4038 47.9436 44.6937 48.2079 45.0594 48.3998C45.4251 48.5943 45.8352 48.689 46.2871 48.689ZM49.3224 49.7211C49.1239 49.7211 48.9594 49.6637 48.8288 49.549C48.6981 49.4344 48.6328 49.2898 48.6328 49.1178V47.3054L48.8914 46.0515L50.0173 46.4778V49.1178C50.0173 49.2923 49.952 49.4344 49.8214 49.549C49.6881 49.6637 49.521 49.7211 49.3224 49.7211Z" fill="white"/>
<path d="M52.9172 49.7086C52.7187 49.7086 52.5515 49.6487 52.4157 49.5316C52.2798 49.4119 52.2119 49.2673 52.2119 49.0928V41.0757C52.2119 40.8937 52.2798 40.7466 52.4157 40.632C52.5515 40.5173 52.7187 40.46 52.9172 40.46C53.1262 40.46 53.2933 40.5173 53.4266 40.632C53.5572 40.7466 53.6225 40.8937 53.6225 41.0757V44.4735H59.9125V41.0757C59.9125 40.8937 59.9804 40.7466 60.1162 40.632C60.2521 40.5173 60.4193 40.46 60.6178 40.46C60.8268 40.46 60.9939 40.5173 61.1193 40.632C61.2447 40.7466 61.31 40.8937 61.31 41.0757V49.0928C61.31 49.2673 61.2473 49.4119 61.1193 49.5316C60.9913 49.6512 60.8268 49.7086 60.6178 49.7086C60.4193 49.7086 60.2521 49.6487 60.1162 49.5316C59.9804 49.4119 59.9125 49.2673 59.9125 49.0928V45.5654H53.6225V49.0928C53.6225 49.2673 53.5572 49.4119 53.4266 49.5316C53.296 49.6512 53.1235 49.7086 52.9172 49.7086Z" fill="white"/>
<path d="M63.6 49.7085C63.3466 49.7085 63.1533 49.6137 63.0175 49.4243C62.8816 49.2348 62.8686 49.0329 62.9757 48.821L66.7842 40.8762C66.92 40.5995 67.142 40.4623 67.4476 40.4623C67.7742 40.4623 67.9936 40.5995 68.1111 40.8762L71.9353 48.8459C72.0346 49.0678 72.0189 49.2672 71.8883 49.4442C71.7577 49.6212 71.5618 49.711 71.2979 49.711C71.1621 49.711 71.0341 49.6785 70.9113 49.6112C70.7886 49.5439 70.7024 49.4517 70.6475 49.332L67.2857 42.0378H67.6644L64.2478 49.332C64.1851 49.4592 64.091 49.5539 63.9709 49.6162C63.8507 49.6761 63.7253 49.7085 63.6 49.7085ZM64.3183 47.6718L64.8616 46.6547H70.1773L70.7207 47.6718H64.3183Z" fill="white"/>
<path d="M0.524575 57.7254C0.474944 57.7254 0.435762 57.713 0.407029 57.6856C0.378295 57.6606 0.365234 57.6257 0.365234 57.5858V53.672C0.365234 53.6321 0.378295 53.5997 0.407029 53.5723C0.43315 53.5474 0.472332 53.5324 0.524575 53.5324H0.874601C0.924232 53.5324 0.963414 53.5449 0.99476 53.5723C1.02349 53.5972 1.03917 53.6321 1.03917 53.672V57.1845H2.71616V53.672C2.71616 53.6321 2.73183 53.5997 2.76057 53.5723C2.7893 53.5474 2.82848 53.5324 2.87289 53.5324H3.22291C3.27255 53.5324 3.31173 53.5449 3.34307 53.5723C3.37181 53.5972 3.38748 53.6321 3.38748 53.672V57.1845H5.06447V53.672C5.06447 53.6321 5.08015 53.5997 5.10888 53.5723C5.13761 53.5474 5.17679 53.5324 5.2212 53.5324H5.57123C5.62086 53.5324 5.66265 53.5449 5.69139 53.5723C5.72012 53.5972 5.73579 53.6321 5.73579 53.672V57.5858C5.73579 57.6257 5.72012 57.6581 5.69139 57.6856C5.66265 57.713 5.62086 57.7254 5.57123 57.7254H0.524575Z" fill="white"/>
<path d="M6.99755 57.7255C6.95314 57.7255 6.91396 57.713 6.88523 57.6856C6.85649 57.6607 6.84082 57.6258 6.84082 57.5859V54.749C6.84082 54.7091 6.85649 54.6767 6.88523 54.6493C6.91396 54.6243 6.95314 54.6094 6.99755 54.6094H7.31884C7.36325 54.6094 7.40243 54.6218 7.43116 54.6493C7.4599 54.6742 7.47557 54.7091 7.47557 54.749V55.8982H8.09987L9.02457 54.7016C9.04808 54.6742 9.07159 54.6518 9.10032 54.6368C9.12905 54.6218 9.16562 54.6119 9.21003 54.6119H9.56528C9.60708 54.6119 9.64103 54.6193 9.66715 54.6368C9.69589 54.6518 9.70895 54.6767 9.70895 54.7091C9.70895 54.7166 9.70634 54.729 9.6985 54.7415C9.69066 54.754 9.68283 54.7689 9.67499 54.7814L8.64842 56.1026L9.81343 57.551C9.83694 57.5759 9.84739 57.6008 9.84739 57.6283C9.84739 57.6607 9.83433 57.6831 9.81082 57.7006C9.7847 57.7155 9.75335 57.7255 9.71156 57.7255H9.29362C9.25182 57.7255 9.21787 57.718 9.19175 57.7006C9.16562 57.6856 9.1395 57.6632 9.11599 57.6357L8.11032 56.3843H7.48079V57.5859C7.48079 57.6258 7.46512 57.6582 7.43639 57.6856C7.40765 57.7105 7.36847 57.7255 7.32407 57.7255H6.99755Z" fill="white"/>
<path d="M11.8044 57.785C11.457 57.785 11.1671 57.7277 10.9346 57.6105C10.7021 57.4934 10.5245 57.3338 10.4017 57.1294C10.2789 56.925 10.211 56.6907 10.1953 56.4264C10.1901 56.3591 10.1875 56.2719 10.1875 56.1672C10.1875 56.0625 10.1901 55.9777 10.1953 55.9129C10.2084 55.6461 10.2789 55.4093 10.4043 55.2074C10.5297 55.003 10.7099 54.8434 10.9424 54.7288C11.1749 54.6141 11.4622 54.5543 11.8044 54.5543C12.1466 54.5543 12.4339 54.6116 12.6664 54.7288C12.8989 54.8434 13.0791 55.003 13.2045 55.2074C13.3299 55.4118 13.4004 55.6461 13.4135 55.9129C13.4187 55.9777 13.4213 56.0625 13.4213 56.1672C13.4213 56.2719 13.4187 56.3591 13.4135 56.4264C13.4004 56.6907 13.3325 56.925 13.2071 57.1294C13.0844 57.3338 12.9067 57.4959 12.6743 57.6105C12.4418 57.7277 12.1518 57.785 11.8044 57.785ZM11.8044 57.3264C12.0865 57.3264 12.3138 57.2466 12.4836 57.0895C12.6534 56.9325 12.7448 56.7006 12.7578 56.399C12.7631 56.3392 12.7657 56.2644 12.7657 56.1721C12.7657 56.0799 12.7631 56.0051 12.7578 55.9453C12.7448 55.6412 12.6534 55.4118 12.4836 55.2548C12.3138 55.0977 12.0891 55.0179 11.8044 55.0179C11.5223 55.0179 11.295 55.0977 11.1226 55.2548C10.9502 55.4118 10.8614 55.6437 10.851 55.9453C10.8458 56.0051 10.8431 56.0799 10.8431 56.1721C10.8431 56.2644 10.8458 56.3392 10.851 56.399C10.8614 56.7031 10.9502 56.9325 11.1226 57.0895C11.295 57.2466 11.5223 57.3264 11.8044 57.3264Z" fill="white"/>
<path d="M14.0425 57.7254C13.9981 57.7254 13.9589 57.7104 13.9249 57.683C13.8936 57.6556 13.8779 57.6207 13.8779 57.5808V57.3589C13.8779 57.2742 13.9249 57.2318 14.0216 57.2268C14.1627 57.2218 14.2828 57.1645 14.3768 57.0498C14.4735 56.9351 14.5466 56.7556 14.5963 56.5063C14.6459 56.2571 14.672 55.928 14.672 55.5167V54.7514C14.672 54.7115 14.6877 54.6791 14.7164 54.6516C14.7452 54.6267 14.7843 54.6118 14.8287 54.6118H17.0073C17.0517 54.6118 17.0909 54.6242 17.1196 54.6516C17.1483 54.6766 17.164 54.7115 17.164 54.7514V57.5883C17.164 57.6281 17.1483 57.6606 17.1196 57.688C17.0909 57.7129 17.0517 57.7279 17.0073 57.7279H16.6781C16.6311 57.7279 16.5946 57.7154 16.5684 57.688C16.5423 57.6606 16.5266 57.6281 16.5266 57.5883V55.0929H15.2937V55.584C15.2937 55.9679 15.2676 56.2945 15.218 56.5687C15.1683 56.8429 15.09 57.0623 14.9881 57.2318C14.8862 57.4013 14.7556 57.5259 14.5989 57.6057C14.4448 57.6855 14.2567 57.7254 14.0425 57.7254Z" fill="white"/>
<path d="M19.1783 57.7854C18.951 57.7854 18.7421 57.7456 18.554 57.6658C18.3659 57.586 18.217 57.4788 18.1021 57.3417C17.9872 57.2071 17.9297 57.0525 17.9297 56.8805C17.9297 56.6063 18.0577 56.3869 18.3137 56.2224C18.5697 56.0579 18.9014 55.9507 19.3141 55.8983L20.3355 55.7737V55.5992C20.3355 55.4072 20.2728 55.2577 20.1474 55.1505C20.022 55.0433 19.8183 54.9884 19.5335 54.9884C19.3272 54.9884 19.1626 55.0233 19.0372 55.0956C18.9119 55.1679 18.823 55.2602 18.7734 55.3698C18.7473 55.4297 18.6977 55.4596 18.6297 55.4596H18.3215C18.2719 55.4596 18.2327 55.4471 18.2092 55.4197C18.1831 55.3948 18.1726 55.3624 18.1726 55.3275C18.1726 55.2676 18.1987 55.1928 18.251 55.1056C18.3032 55.0183 18.3842 54.9311 18.4939 54.8488C18.6036 54.7641 18.7447 54.6943 18.9145 54.6369C19.0869 54.5796 19.2958 54.5497 19.5414 54.5497C19.8157 54.5497 20.0455 54.5796 20.2336 54.6419C20.4217 54.7042 20.5679 54.7865 20.675 54.8912C20.7821 54.9959 20.8605 55.1131 20.9075 55.2452C20.9545 55.3773 20.9807 55.5094 20.9807 55.6466V57.586C20.9807 57.6259 20.965 57.6583 20.9363 57.6857C20.9075 57.7107 20.8683 57.7256 20.8239 57.7256H20.5079C20.4582 57.7256 20.4191 57.7132 20.3903 57.6857C20.3642 57.6608 20.3485 57.6259 20.3485 57.586V57.3293C20.2884 57.4015 20.2101 57.4713 20.1082 57.5411C20.0089 57.6109 19.881 57.6683 19.7321 57.7156C19.5832 57.763 19.3977 57.7854 19.1783 57.7854ZM19.3246 57.3367C19.5126 57.3367 19.6824 57.3018 19.8392 57.232C19.9933 57.1622 20.116 57.0525 20.2049 56.9055C20.2937 56.7584 20.3381 56.5714 20.3381 56.3495V56.1825L19.544 56.2847C19.2201 56.3246 18.9745 56.3919 18.81 56.4842C18.6454 56.5789 18.5644 56.6961 18.5644 56.8406C18.5644 56.9528 18.601 57.0451 18.6768 57.1198C18.7525 57.1946 18.8492 57.2495 18.9641 57.2844C19.079 57.3193 19.1992 57.3367 19.3246 57.3367Z" fill="white"/>
<path d="M25.0804 57.785C24.7565 57.785 24.477 57.7302 24.2419 57.6205C24.0068 57.5108 23.8266 57.3538 23.6986 57.1469C23.5706 56.9424 23.5027 56.6957 23.4922 56.409C23.487 56.3491 23.4844 56.2694 23.4844 56.1697C23.4844 56.0699 23.487 55.9902 23.4922 55.9303C23.5027 55.6437 23.5706 55.3969 23.6986 55.1924C23.8266 54.988 24.0068 54.8285 24.2419 54.7188C24.477 54.6091 24.7565 54.5543 25.0804 54.5543C25.3442 54.5543 25.5715 54.5867 25.7622 54.649C25.9502 54.7138 26.107 54.7936 26.2323 54.8933C26.3551 54.993 26.4492 55.1002 26.5092 55.2174C26.5719 55.332 26.6033 55.4417 26.6085 55.5464C26.6137 55.5863 26.598 55.6187 26.5667 55.6412C26.5354 55.6636 26.4962 55.6761 26.4492 55.6761H26.12C26.0756 55.6761 26.039 55.6661 26.0182 55.6486C25.9946 55.6312 25.9711 55.5988 25.9502 55.5564C25.8693 55.362 25.7569 55.2224 25.6159 55.1426C25.4748 55.0628 25.2998 55.0229 25.0882 55.0229C24.814 55.0229 24.5919 55.0977 24.4195 55.2448C24.2471 55.3919 24.1557 55.6287 24.1426 55.9578C24.1374 56.1023 24.1374 56.2419 24.1426 56.3766C24.1557 56.7081 24.2497 56.9449 24.4195 57.092C24.5919 57.2366 24.814 57.3114 25.0882 57.3114C25.2972 57.3114 25.4748 57.2715 25.6159 57.1917C25.7569 57.112 25.8693 56.9749 25.9502 56.7779C25.9737 56.733 25.9946 56.7031 26.0182 56.6857C26.0417 56.6682 26.0756 56.6583 26.12 56.6583H26.4492C26.4936 56.6583 26.5327 56.6707 26.5667 56.6932C26.598 56.7181 26.6111 56.748 26.6085 56.7879C26.6033 56.8726 26.5824 56.9574 26.5458 57.0447C26.5092 57.1319 26.4518 57.2216 26.3708 57.3114C26.2898 57.4011 26.1906 57.4809 26.073 57.5507C25.9555 57.6205 25.8118 57.6754 25.6446 57.7177C25.4801 57.7651 25.2894 57.785 25.0804 57.785Z" fill="white"/>
<path d="M27.5734 57.7252C27.529 57.7252 27.4924 57.7127 27.4637 57.6903C27.4349 57.6654 27.4219 57.6355 27.4219 57.5956V54.7288C27.4219 54.6963 27.4375 54.6689 27.4663 54.649C27.495 54.6265 27.5264 54.6166 27.5577 54.6166H27.9077C27.9809 54.6166 28.0383 54.649 28.0801 54.7113L29.2451 56.6134L30.4154 54.7113C30.4572 54.6465 30.5146 54.6166 30.5878 54.6166H30.93C30.9665 54.6166 30.9979 54.6265 31.0266 54.649C31.0527 54.6714 31.0684 54.6988 31.0684 54.7288V57.5956C31.0684 57.6355 31.0554 57.6679 31.0266 57.6903C30.9979 57.7152 30.9639 57.7252 30.9248 57.7252H30.5904C30.546 57.7252 30.5094 57.7127 30.4807 57.6903C30.4546 57.6654 30.4389 57.6355 30.4389 57.5956V55.2074L30.6792 55.2323L29.5638 57.0746C29.5403 57.1145 29.5142 57.1494 29.4829 57.1818C29.4515 57.2142 29.4019 57.2291 29.3392 57.2291H29.1616C29.1015 57.2291 29.0571 57.2142 29.0257 57.1818C28.9944 57.1494 28.963 57.1145 28.9369 57.0746L27.8555 55.3221L28.0671 55.3046V57.5956C28.0671 57.6355 28.054 57.6679 28.0253 57.6903C27.9965 57.7127 27.96 57.7252 27.9156 57.7252H27.5734Z" fill="white"/>
<path d="M33.5107 57.7849C33.0405 57.7849 32.667 57.6578 32.3875 57.406C32.108 57.1517 31.9565 56.8077 31.9278 56.369C31.9225 56.3166 31.9199 56.2493 31.9199 56.1695C31.9199 56.0873 31.9225 56.02 31.9278 55.9701C31.946 55.6859 32.0218 55.4391 32.155 55.2247C32.2882 55.0103 32.4685 54.8458 32.6983 54.7311C32.9282 54.6165 33.1999 54.5566 33.5107 54.5566C33.8581 54.5566 34.1481 54.6215 34.3832 54.7486C34.6183 54.8757 34.7985 55.0577 34.9213 55.292C35.044 55.5264 35.1067 55.8031 35.1067 56.1172V56.2194C35.1067 56.2643 35.0911 56.2967 35.0623 56.3216C35.0336 56.3465 34.9944 56.3565 34.95 56.3565H32.5808C32.5808 56.3615 32.5808 56.369 32.5808 56.3814C32.5808 56.3939 32.5808 56.4039 32.5808 56.4113C32.5912 56.5759 32.6304 56.7279 32.7036 56.87C32.7767 57.0121 32.8812 57.1268 33.0196 57.2141C33.1555 57.3013 33.32 57.3462 33.5133 57.3462C33.6779 57.3462 33.8137 57.3237 33.9234 57.2814C34.0331 57.2365 34.122 57.1891 34.1899 57.1343C34.2578 57.0794 34.3048 57.0396 34.3257 57.0121C34.3675 56.9598 34.3988 56.9299 34.4223 56.9199C34.4459 56.9099 34.4824 56.9049 34.5321 56.9049H34.8612C34.9056 56.9049 34.9448 56.9149 34.9735 56.9373C35.0022 56.9598 35.0153 56.9897 35.0101 57.0296C35.0049 57.0894 34.9683 57.1617 34.9004 57.249C34.8325 57.3337 34.7332 57.4185 34.6052 57.5032C34.4772 57.588 34.3231 57.6553 34.1402 57.7101C33.9574 57.765 33.7484 57.7849 33.5107 57.7849ZM32.5808 55.9427H34.4563V55.9252C34.4563 55.7457 34.4197 55.5862 34.344 55.4466C34.2682 55.307 34.1611 55.1973 34.0175 55.115C33.8764 55.0328 33.7066 54.9929 33.5107 54.9929C33.3148 54.9929 33.1476 55.0328 33.0066 55.115C32.8681 55.1973 32.761 55.307 32.6879 55.4466C32.6148 55.5862 32.5782 55.7457 32.5782 55.9252V55.9427H32.5808Z" fill="white"/>
<path d="M37.0163 57.7255C36.9719 57.7255 36.9327 57.713 36.904 57.6856C36.8753 57.6607 36.8596 57.6258 36.8596 57.5859V55.093H35.6684C35.624 55.093 35.5849 55.0805 35.5561 55.0531C35.5274 55.0282 35.5117 54.9933 35.5117 54.9534V54.749C35.5117 54.7091 35.5274 54.6767 35.5561 54.6493C35.5849 54.6243 35.624 54.6094 35.6684 54.6094H38.6829C38.7273 54.6094 38.7664 54.6218 38.7952 54.6493C38.8239 54.6742 38.8396 54.7091 38.8396 54.749V54.9534C38.8396 54.9933 38.8239 55.0257 38.7952 55.0531C38.7664 55.078 38.7273 55.093 38.6829 55.093H37.4917V57.5884C37.4917 57.6283 37.4787 57.6607 37.4499 57.6881C37.4212 57.7155 37.3846 57.728 37.3324 57.728H37.0163V57.7255Z" fill="white"/>
<path d="M39.5913 57.7255C39.5469 57.7255 39.5077 57.713 39.479 57.6856C39.4502 57.6607 39.4346 57.6258 39.4346 57.5859V54.749C39.4346 54.7091 39.4502 54.6767 39.479 54.6493C39.5077 54.6243 39.5469 54.6094 39.5913 54.6094H39.9204C39.9648 54.6094 40.004 54.6218 40.0301 54.6493C40.0563 54.6742 40.0719 54.7091 40.0719 54.749V55.8982H41.9422V54.749C41.9422 54.7091 41.9579 54.6767 41.9866 54.6493C42.0154 54.6243 42.0545 54.6094 42.099 54.6094H42.4202C42.4647 54.6094 42.5038 54.6218 42.5326 54.6493C42.5613 54.6742 42.577 54.7091 42.577 54.749V57.5859C42.577 57.6258 42.5613 57.6582 42.5326 57.6856C42.5038 57.7105 42.4647 57.7255 42.4202 57.7255H42.099C42.0545 57.7255 42.0154 57.713 41.9866 57.6856C41.9579 57.6582 41.9422 57.6258 41.9422 57.5859V56.3768H40.0719V57.5859C40.0719 57.6258 40.0589 57.6582 40.0301 57.6856C40.0014 57.713 39.9648 57.7255 39.9204 57.7255H39.5913Z" fill="white"/>
<path d="M45.0642 57.785C44.7168 57.785 44.4268 57.7277 44.1943 57.6105C43.9619 57.4934 43.7842 57.3338 43.6615 57.1294C43.5387 56.925 43.4708 56.6907 43.4551 56.4264C43.4499 56.3591 43.4473 56.2719 43.4473 56.1672C43.4473 56.0625 43.4499 55.9777 43.4551 55.9129C43.4682 55.6461 43.5387 55.4093 43.6641 55.2074C43.7895 55.003 43.9697 54.8434 44.2022 54.7288C44.4347 54.6141 44.722 54.5543 45.0642 54.5543C45.4064 54.5543 45.6937 54.6116 45.9262 54.7288C46.1587 54.8434 46.3389 55.003 46.4643 55.2074C46.5897 55.4118 46.6602 55.6461 46.6733 55.9129C46.6785 55.9777 46.6811 56.0625 46.6811 56.1672C46.6811 56.2719 46.6785 56.3591 46.6733 56.4264C46.6602 56.6907 46.5923 56.925 46.4669 57.1294C46.3441 57.3338 46.1665 57.4959 45.934 57.6105C45.6989 57.7277 45.409 57.785 45.0642 57.785ZM45.0642 57.3264C45.3463 57.3264 45.5735 57.2466 45.7433 57.0895C45.9131 56.9325 46.0045 56.7006 46.0176 56.399C46.0228 56.3392 46.0254 56.2644 46.0254 56.1721C46.0254 56.0799 46.0228 56.0051 46.0176 55.9453C46.0045 55.6412 45.9131 55.4118 45.7433 55.2548C45.5735 55.0977 45.3489 55.0179 45.0642 55.0179C44.7821 55.0179 44.5548 55.0977 44.3824 55.2548C44.21 55.4118 44.1212 55.6437 44.1108 55.9453C44.1055 56.0051 44.1029 56.0799 44.1029 56.1721C44.1029 56.2644 44.1055 56.3392 44.1108 56.399C44.1212 56.7031 44.21 56.9325 44.3824 57.0895C44.5522 57.2466 44.7795 57.3264 45.0642 57.3264Z" fill="white"/>
<path d="M47.6929 57.7255C47.6485 57.7255 47.6093 57.713 47.5805 57.6856C47.5518 57.6607 47.5361 57.6258 47.5361 57.5859V54.749C47.5361 54.7091 47.5518 54.6767 47.5805 54.6493C47.6093 54.6243 47.6485 54.6094 47.6929 54.6094H49.7408C49.7852 54.6094 49.8244 54.6218 49.8505 54.6493C49.8766 54.6742 49.8923 54.7091 49.8923 54.749V54.9534C49.8923 54.9933 49.8792 55.0257 49.8505 55.0531C49.8218 55.0805 49.7852 55.093 49.7408 55.093H48.1735V57.5884C48.1735 57.6283 48.1604 57.6607 48.1317 57.6881C48.103 57.7155 48.0664 57.728 48.022 57.728H47.6929V57.7255Z" fill="white"/>
<path d="M51.864 57.785C51.5166 57.785 51.2266 57.7277 50.9941 57.6105C50.7617 57.4934 50.584 57.3338 50.4613 57.1294C50.3385 56.925 50.2706 56.6907 50.2549 56.4264C50.2497 56.3591 50.2471 56.2719 50.2471 56.1672C50.2471 56.0625 50.2497 55.9777 50.2549 55.9129C50.268 55.6461 50.3385 55.4093 50.4639 55.2074C50.5893 55.003 50.7695 54.8434 51.002 54.7288C51.2345 54.6141 51.5218 54.5543 51.864 54.5543C52.2062 54.5543 52.4935 54.6116 52.726 54.7288C52.9585 54.8434 53.1387 55.003 53.2641 55.2074C53.3895 55.4118 53.46 55.6461 53.4731 55.9129C53.4783 55.9777 53.4809 56.0625 53.4809 56.1672C53.4809 56.2719 53.4783 56.3591 53.4731 56.4264C53.46 56.6907 53.3921 56.925 53.2667 57.1294C53.1439 57.3338 52.9663 57.4959 52.7338 57.6105C52.5013 57.7277 52.2114 57.785 51.864 57.785ZM51.864 57.3264C52.1461 57.3264 52.3734 57.2466 52.5431 57.0895C52.7129 56.9325 52.8044 56.7006 52.8174 56.399C52.8226 56.3392 52.8253 56.2644 52.8253 56.1721C52.8253 56.0799 52.8226 56.0051 52.8174 55.9453C52.8044 55.6412 52.7129 55.4118 52.5431 55.2548C52.3734 55.0977 52.1487 55.0179 51.864 55.0179C51.5819 55.0179 51.3546 55.0977 51.1822 55.2548C51.0098 55.4118 50.921 55.6437 50.9106 55.9453C50.9053 56.0051 50.9027 56.0799 50.9027 56.1721C50.9027 56.2644 50.9053 56.3392 50.9106 56.399C50.921 56.7031 51.0098 56.9325 51.1822 57.0895C51.3546 57.2466 51.5819 57.3264 51.864 57.3264Z" fill="white"/>
<path d="M55.8081 58.3836C55.7637 58.3836 55.7245 58.3711 55.6958 58.3437C55.667 58.3163 55.6514 58.2839 55.6514 58.244V57.3815C55.6514 57.3416 55.667 57.3092 55.6958 57.2818C55.7245 57.2568 55.7637 57.2419 55.8081 57.2419H55.8421C55.9648 57.2369 56.0693 57.1771 56.1581 57.0599C56.2443 56.9427 56.3122 56.7558 56.3566 56.504C56.4011 56.2497 56.4246 55.9206 56.4246 55.5143V54.749C56.4246 54.7091 56.4402 54.6767 56.469 54.6493C56.4977 54.6243 56.5369 54.6094 56.5813 54.6094H58.765C58.8094 54.6094 58.8486 54.6218 58.8774 54.6493C58.9061 54.6742 58.9218 54.7091 58.9218 54.749V57.2319H59.2431C59.2927 57.2319 59.3319 57.2444 59.3606 57.2718C59.3867 57.2967 59.4024 57.3316 59.4024 57.3715V58.244C59.4024 58.2839 59.3893 58.3163 59.3606 58.3437C59.3319 58.3686 59.2953 58.3836 59.2431 58.3836H58.9218C58.8774 58.3836 58.8382 58.3711 58.8094 58.3437C58.7807 58.3188 58.765 58.2839 58.765 58.244V57.723H56.2861V58.244C56.2861 58.2839 56.2704 58.3163 56.2417 58.3437C56.213 58.3686 56.1738 58.3836 56.1294 58.3836H55.8081ZM56.657 57.2469L58.287 57.2344V55.093H57.0462V55.5841C57.0462 56.0079 57.0123 56.3519 56.9444 56.6211C56.8765 56.8929 56.7798 57.0998 56.657 57.2469Z" fill="white"/>
<path d="M61.539 57.7849C61.0689 57.7849 60.6953 57.6578 60.4158 57.406C60.1363 57.1517 59.9848 56.8077 59.9561 56.369C59.9509 56.3166 59.9482 56.2493 59.9482 56.1695C59.9482 56.0873 59.9509 56.02 59.9561 55.9701C59.9744 55.6859 60.0501 55.4391 60.1833 55.2247C60.3166 55.0103 60.4968 54.8458 60.7267 54.7311C60.9565 54.6165 61.2282 54.5566 61.539 54.5566C61.8865 54.5566 62.1764 54.6215 62.4115 54.7486C62.6466 54.8757 62.8268 55.0577 62.9496 55.292C63.0724 55.5264 63.1351 55.8031 63.1351 56.1172V56.2194C63.1351 56.2643 63.1194 56.2967 63.0906 56.3216C63.0619 56.3465 63.0227 56.3565 62.9783 56.3565H60.6091C60.6091 56.3615 60.6091 56.369 60.6091 56.3814C60.6091 56.3939 60.6091 56.4039 60.6091 56.4113C60.6196 56.5759 60.6587 56.7279 60.7319 56.87C60.805 57.0121 60.9095 57.1268 61.048 57.2141C61.1838 57.3013 61.3484 57.3462 61.5416 57.3462C61.7062 57.3462 61.842 57.3237 61.9518 57.2814C62.0615 57.2365 62.1503 57.1891 62.2182 57.1343C62.2861 57.0794 62.3331 57.0396 62.354 57.0121C62.3958 56.9598 62.4272 56.9299 62.4507 56.9199C62.4742 56.9099 62.5108 56.9049 62.5604 56.9049H62.8895C62.9339 56.9049 62.9731 56.9149 63.0018 56.9373C63.0306 56.9598 63.0436 56.9897 63.0384 57.0296C63.0332 57.0894 62.9966 57.1617 62.9287 57.249C62.8608 57.3337 62.7615 57.4185 62.6335 57.5032C62.5055 57.588 62.3514 57.6553 62.1686 57.7101C61.9857 57.765 61.7767 57.7849 61.539 57.7849ZM60.6091 55.9427H62.4846V55.9252C62.4846 55.7457 62.4481 55.5862 62.3723 55.4466C62.2966 55.307 62.1895 55.1973 62.0458 55.115C61.9047 55.0328 61.7349 54.9929 61.539 54.9929C61.3431 54.9929 61.1759 55.0328 61.0349 55.115C60.8964 55.1973 60.7894 55.307 60.7162 55.4466C60.6431 55.5862 60.6065 55.7457 60.6065 55.9252V55.9427H60.6091Z" fill="white"/>
<path d="M63.7564 57.7254C63.712 57.7254 63.6728 57.7104 63.6388 57.683C63.6075 57.6556 63.5918 57.6207 63.5918 57.5808V57.3589C63.5918 57.2742 63.6388 57.2318 63.7355 57.2268C63.8765 57.2218 63.9967 57.1645 64.0907 57.0498C64.1874 56.9351 64.2605 56.7556 64.3101 56.5063C64.3598 56.2571 64.3859 55.928 64.3859 55.5167V54.7514C64.3859 54.7115 64.4016 54.6791 64.4303 54.6516C64.459 54.6267 64.4982 54.6118 64.5426 54.6118H66.7211C66.7655 54.6118 66.8047 54.6242 66.8335 54.6516C66.8622 54.6766 66.8779 54.7115 66.8779 54.7514V57.5883C66.8779 57.6281 66.8622 57.6606 66.8335 57.688C66.8047 57.7129 66.7655 57.7279 66.7211 57.7279H66.392C66.345 57.7279 66.3084 57.7154 66.2823 57.688C66.2562 57.6606 66.2405 57.6281 66.2405 57.5883V55.0929H65.0076V55.584C65.0076 55.9679 64.9815 56.2945 64.9318 56.5687C64.8822 56.8429 64.8038 57.0623 64.702 57.2318C64.6001 57.4013 64.4695 57.5259 64.3127 57.6057C64.1586 57.6855 63.9732 57.7254 63.7564 57.7254Z" fill="white"/>
<path d="M68.8951 57.7854C68.6678 57.7854 68.4589 57.7456 68.2708 57.6658C68.0827 57.586 67.9338 57.4788 67.8189 57.3417C67.704 57.2071 67.6465 57.0525 67.6465 56.8805C67.6465 56.6063 67.7745 56.3869 68.0305 56.2224C68.2865 56.0579 68.6182 55.9507 69.0309 55.8983L70.0523 55.7737V55.5992C70.0523 55.4072 69.9896 55.2577 69.8642 55.1505C69.7388 55.0433 69.5351 54.9884 69.2503 54.9884C69.044 54.9884 68.8794 55.0233 68.754 55.0956C68.6286 55.1679 68.5398 55.2602 68.4902 55.3698C68.4641 55.4297 68.4145 55.4596 68.3465 55.4596H68.0383C67.9887 55.4596 67.9495 55.4471 67.926 55.4197C67.8999 55.3948 67.8894 55.3624 67.8894 55.3275C67.8894 55.2676 67.9155 55.1928 67.9678 55.1056C68.02 55.0183 68.101 54.9311 68.2107 54.8488C68.3204 54.7641 68.4615 54.6943 68.6313 54.6369C68.8037 54.5796 69.0126 54.5497 69.2582 54.5497C69.5324 54.5497 69.7623 54.5796 69.9504 54.6419C70.1385 54.7042 70.2847 54.7865 70.3918 54.8912C70.4989 54.9959 70.5773 55.1131 70.6243 55.2452C70.6713 55.3773 70.6975 55.5094 70.6975 55.6466V57.586C70.6975 57.6259 70.6818 57.6583 70.6531 57.6857C70.6243 57.7107 70.5851 57.7256 70.5407 57.7256H70.2247C70.175 57.7256 70.1358 57.7132 70.1071 57.6857C70.081 57.6608 70.0653 57.6259 70.0653 57.586V57.3293C70.0052 57.4015 69.9269 57.4713 69.825 57.5411C69.7257 57.6109 69.5978 57.6683 69.4489 57.7156C69.2974 57.763 69.1119 57.7854 68.8951 57.7854ZM69.0388 57.3367C69.2268 57.3367 69.3966 57.3018 69.5533 57.232C69.7075 57.1622 69.8302 57.0525 69.919 56.9055C70.0079 56.7584 70.0523 56.5714 70.0523 56.3495V56.1825L69.2582 56.2847C68.9343 56.3246 68.6887 56.3919 68.5242 56.4842C68.3596 56.5789 68.2786 56.6961 68.2786 56.8406C68.2786 56.9528 68.3152 57.0451 68.3909 57.1198C68.4667 57.1946 68.5633 57.2495 68.6783 57.2844C68.7958 57.3193 68.9134 57.3367 69.0388 57.3367Z" fill="white"/>
</svg>
