<svg width="72" height="59" viewBox="0 0 72 59" fill="none" xmlns="http://www.w3.org/2000/svg">
<g clip-path="url(#clip0_0_3)">
<path d="M48.7058 9.91422L48.1599 9.36329C48.1468 9.35332 48.1337 9.33836 48.1207 9.32589C46.7806 8.05701 45.4511 6.77816 44.1136 5.50928C43.9439 5.34724 43.8681 5.19019 43.8707 4.95586C43.8707 4.86861 43.8707 4.78385 43.8707 4.6966V4.65173L43.8733 4.08584C43.8759 3.06376 43.8733 2.04417 43.8733 1.01959C43.8733 0.289175 43.5729 0 42.8102 0C37.9203 0 33.0303 0 28.1404 0C27.7538 0 27.4848 0.0722938 27.315 0.24181C27.1818 0.373933 27.106 0.563393 27.0825 0.82016C27.0825 0.825146 27.0825 0.827639 27.0825 0.832624C27.0799 0.889961 27.0773 0.952283 27.0773 1.01959V1.24894C27.0773 1.44089 27.0773 1.63035 27.0773 1.8223C27.0747 2.88178 27.0747 3.94126 27.0799 4.99824C27.0799 5.20016 27.025 5.34226 26.8709 5.48685C26.0011 6.31199 25.1365 7.13963 24.2692 7.96727C23.8095 8.40352 23.3524 8.83978 22.89 9.27604C22.7594 9.40068 22.6288 9.52283 22.4982 9.64498C22.1769 9.94662 22.0306 10.2682 22.0332 10.702C22.0358 11.6742 22.0358 12.6489 22.0385 13.6211C22.0411 17.0887 22.0385 20.5588 22.0385 24.0265C22.0385 28.5062 22.0385 32.9834 22.0385 37.4631C22.0385 38.1412 22.3598 38.4428 23.0676 38.4428H47.768C48.6457 38.4428 48.9095 38.1885 48.9095 37.3509C48.9095 28.4289 48.9095 19.5093 48.9121 10.5873C48.9148 10.3305 48.8521 10.1112 48.7058 9.91422ZM42.8415 6.92524C42.9121 6.85793 42.9617 6.66349 43.1393 6.83301C43.9987 7.65317 44.8633 8.47333 45.7619 9.32589C45.775 9.33836 45.788 9.35082 45.8037 9.36578H45.5138V9.35581H40.2947C40.3078 9.34334 40.3208 9.33088 40.3339 9.31841C41.1933 8.49576 42.0161 7.70801 42.8415 6.92524ZM28.7726 2.11397C28.7726 2.04666 28.7699 1.97935 28.7699 1.90955C28.7647 1.63533 28.8561 1.58548 29.1226 1.58548C30.3372 1.58797 31.5545 1.58797 32.7691 1.58797H33.1009C33.302 1.58797 33.5005 1.58797 33.6991 1.58797C36.4183 1.59046 39.1375 1.58797 41.8542 1.58548C42.1023 1.58548 42.1885 1.63035 42.1833 1.88712C42.1702 2.53028 42.165 3.17345 42.1728 3.81661C42.1728 4.01106 42.1781 4.20301 42.1807 4.39745C42.1807 4.43485 42.1807 4.47224 42.1833 4.50963C42.1885 4.77388 42.0919 4.80629 41.8515 4.80629C39.7305 4.79881 37.6068 4.8013 35.4858 4.8013C33.3778 4.8013 31.2671 4.79382 29.1592 4.80878C28.8196 4.81127 28.7569 4.71904 28.7673 4.4174C28.7908 3.65457 28.7882 2.88427 28.7726 2.11397ZM25.2409 9.2885C26.0298 8.5506 26.8135 7.8501 27.5318 7.09227C28.0385 6.55629 28.5714 6.37182 29.3237 6.3793C33.1714 6.4142 37.0191 6.39176 40.8668 6.38927C40.8877 6.38927 40.9059 6.40921 40.966 6.44162C40.7205 6.67346 40.4828 6.89533 40.2477 7.11969C39.4849 7.8501 38.7222 8.58052 37.9621 9.31343C37.949 9.32589 37.9359 9.33836 37.9229 9.35082C37.8968 9.37824 37.868 9.40567 37.8393 9.43309C37.727 9.54277 37.6173 9.61507 37.437 9.61507C33.3229 9.61008 29.2114 9.61008 25.0973 9.61008C25.0633 9.61008 25.0294 9.59762 24.9301 9.57767C25.0189 9.49292 25.1077 9.41065 25.1965 9.32839C25.2122 9.31343 25.2279 9.30096 25.2409 9.2885ZM37.1523 36.4734C37.1523 36.5906 37.1418 36.6754 37.1131 36.7352C37.0635 36.8349 36.9564 36.8673 36.75 36.8648C36.6612 36.8648 36.5698 36.8648 36.4784 36.8648H36.4052C36.2093 36.8648 36.0108 36.8648 35.8149 36.8648C32.0142 36.8549 28.2136 36.8573 24.4129 36.8648H24.1203C23.9088 36.8648 23.8069 36.8299 23.7625 36.7153C23.7494 36.6779 23.7416 36.6305 23.7364 36.5756C23.7337 36.5507 23.7337 36.5233 23.7337 36.4934C23.7442 32.3377 23.739 28.1846 23.739 24.0289C23.739 19.8858 23.7442 15.7451 23.7311 11.6019C23.7311 11.2654 23.8173 11.1956 24.1595 11.1956C24.8831 11.1981 25.6093 11.1981 26.3328 11.2005H26.5C26.6437 11.2005 26.7899 11.2005 26.931 11.2005C27.0276 11.2005 27.1243 11.2005 27.2236 11.2005H28.1012C28.8692 11.2005 29.6372 11.203 30.4078 11.203H31.6668C31.8288 11.203 31.9907 11.203 32.1553 11.203H32.7665C32.8788 11.203 32.9912 11.203 33.1009 11.203H33.7226C33.9002 11.203 34.0778 11.203 34.2554 11.203C35.0861 11.203 35.9168 11.2005 36.7474 11.1981C37.0765 11.1981 37.1523 11.2753 37.1523 11.5844C37.1445 19.8808 37.1445 28.1771 37.1523 36.4734ZM47.2169 36.5183C47.2169 36.8075 47.1333 36.8623 46.8486 36.8623C44.3069 36.8524 41.7627 36.8499 39.2185 36.8623C38.9077 36.8623 38.8345 36.7826 38.8371 36.4909C38.8476 32.3328 38.8424 28.1771 38.8424 24.019C38.8424 19.8733 38.845 15.7301 38.8371 11.5844C38.8371 11.2753 38.9129 11.1931 39.242 11.1956C41.7862 11.208 44.3278 11.2055 46.8721 11.1956C47.1437 11.1956 47.2169 11.2504 47.2169 11.5196C47.209 19.8534 47.209 28.1871 47.2169 36.5183ZM40.2947 9.35332L45.5138 9.36329V9.35332H40.2947Z" fill="white"/>
<path d="M36.7946 35.1474C36.6039 35.1474 36.4158 35.14 36.2278 35.1499C36.0971 35.1574 36.0658 35.12 36.0684 35.0078C36.0762 34.589 36.071 34.1702 36.071 33.7514C36.0684 33.5121 35.9561 33.4074 35.6792 33.4074C35.2665 33.4074 34.8564 33.4024 34.4463 33.4099C34.2974 33.4124 34.2634 33.375 34.2634 33.2479C34.2686 25.8589 34.2686 18.4725 34.2634 11.0861L46.3002 9.75489L45.9527 9.62027H45.6602L36.2225 9.75987C35.5172 9.75987 34.7049 9.76735 33.9996 9.75987C31.0322 9.72747 27.7905 9.94435 24.8232 9.93936L23.76 10.2211C23.282 10.2211 24.1309 9.20147 23.6529 9.19897L23.4126 9.75738C24.3268 9.75987 25.2437 9.75987 26.158 9.75987C26.4401 9.75987 26.4061 9.73495 26.4061 9.98174V11.0836C26.4087 18.4526 26.4061 25.8215 26.4061 33.1905C26.4061 33.2179 26.4009 33.2479 26.4087 33.2753C26.427 33.385 26.3669 33.4074 26.2546 33.4049C25.8941 33.4024 25.5363 33.4024 25.1784 33.4024C24.8362 33.4024 24.7265 33.4996 24.7239 33.8038C24.7213 34.0556 24.7265 34.3073 24.7239 34.5591C24.7213 34.7486 24.797 35.0004 24.6899 35.11C24.5776 35.2197 24.2851 35.1325 24.0709 35.1425H24.05C23.76 35.1449 23.6372 35.2472 23.6372 35.5064V37.0021C23.6372 37.3586 23.7365 37.4459 24.144 37.4459H36.6588C36.7058 37.4459 36.7502 37.4484 36.7946 37.4459C37.0218 37.4384 37.1525 37.3212 37.1525 37.1243V35.4566C37.1525 35.2521 37.0375 35.1499 36.7946 35.1474ZM32.6204 28.4391C32.6204 28.5263 32.623 28.5812 32.4819 28.5812C31.1733 28.5762 29.862 28.5787 28.5507 28.5787C28.5272 28.5787 28.5037 28.5762 28.4566 28.5737C29.8437 27.2899 31.2124 26.0235 32.5838 24.7571C32.6413 24.7845 32.6178 24.8294 32.6178 24.8643C32.6178 26.0534 32.6178 27.245 32.6204 28.4391ZM32.6178 33.2678C32.6178 33.3426 32.6334 33.4074 32.4976 33.4074C31.1733 33.4049 29.8489 33.4049 28.4592 33.4049C29.8541 32.1161 31.2151 30.8597 32.576 29.6033C32.6308 29.6407 32.6152 29.6756 32.6152 29.708C32.6178 30.8946 32.6178 32.0812 32.6178 33.2678ZM28.0282 9.89449C28.0282 9.80724 28.0387 9.75738 28.1615 9.75738C29.4806 9.76237 30.7945 9.75987 32.1136 9.76237C32.1189 9.76237 32.1241 9.76735 32.1528 9.79228C31.6879 10.2236 31.2177 10.6523 30.7527 11.0861C29.8541 11.9187 28.9477 12.7538 28.0309 13.6014C28.0309 12.7464 28.0309 11.9112 28.0282 11.0836C28.0309 10.6872 28.0282 10.2909 28.0282 9.89449ZM32.6204 18.7467C32.623 18.8415 32.6099 18.8863 32.4767 18.8863C31.1863 18.8813 29.8933 18.8838 28.6029 18.8838C28.5716 18.8838 28.5428 18.8789 28.4775 18.8714C29.862 17.5925 31.2203 16.3361 32.5838 15.0772C32.6334 15.1345 32.6178 15.1819 32.6178 15.2268C32.6178 16.3984 32.6178 17.5726 32.6204 18.7467ZM32.6204 23.5804C32.623 23.7026 32.5838 23.73 32.4506 23.73C31.1524 23.725 29.8541 23.7275 28.5559 23.7275C28.5376 23.7275 28.5219 23.725 28.4697 23.7176C29.8567 22.4337 31.2177 21.1748 32.5786 19.9134C32.6413 19.9433 32.6152 19.9882 32.6152 20.0231C32.6178 21.2097 32.6152 22.3963 32.6204 23.5804ZM28.0309 18.465V18.3329C28.0309 17.1463 28.0309 15.9597 28.0282 14.7731C28.0282 14.6883 28.0204 14.626 28.1615 14.626C29.4597 14.631 30.7579 14.6285 32.0562 14.6285C32.0797 14.6285 32.1032 14.631 32.1659 14.6385C30.7867 15.9173 29.4284 17.1712 28.0309 18.465ZM28.2346 19.4522C29.4858 19.4597 30.7396 19.4547 31.9935 19.4547H32.192C30.7971 20.746 29.4284 22.0099 28.0282 23.3037V23.1193C28.0282 21.9601 28.0309 20.8009 28.023 19.6442C28.0256 19.5021 28.0518 19.4497 28.2346 19.4522ZM28.2006 24.2785C29.5172 24.2809 30.8337 24.2809 32.2077 24.2809C30.8076 25.5772 29.4362 26.8436 28.0282 28.1474V25.7792C28.0282 25.3329 28.0335 24.8842 28.0256 24.438C28.0256 24.3208 28.0596 24.2785 28.2006 24.2785ZM28.1353 29.1496C29.4649 29.1496 30.7919 29.1496 32.1789 29.1496C30.7867 30.4359 29.4284 31.6898 28.0282 32.9861C28.0282 31.7023 28.0282 30.4758 28.0256 29.2518C28.0282 29.1845 28.0439 29.1496 28.1353 29.1496ZM32.6178 13.9031C32.6178 13.9803 32.6491 14.0576 32.495 14.0576C31.155 14.0526 29.8176 14.0551 28.4279 14.0551C29.5119 13.053 30.5803 12.0683 31.6382 11.0886C31.9491 10.7994 32.2625 10.5127 32.5734 10.2236C32.6361 10.2634 32.6152 10.3083 32.6152 10.3457V11.0886C32.6178 12.0234 32.6178 12.9632 32.6178 13.9031ZM25.5415 33.9733C27.161 33.9783 28.7805 33.9758 30.3975 33.9758C32.0091 33.9758 33.6208 33.9783 35.2325 33.9733C35.3945 33.9733 35.4415 34.0032 35.4337 34.1503C35.4206 34.4295 35.4206 34.7112 35.4337 34.9929C35.4415 35.1275 35.3919 35.1499 35.2508 35.1499C32.5211 35.1474 29.7941 35.1474 27.067 35.1474C26.5524 35.1474 26.0378 35.1449 25.5206 35.1499C25.3926 35.1524 25.3586 35.1225 25.3613 35.0078C25.3717 34.7162 25.3743 34.422 25.3586 34.1328C25.3534 33.9957 25.4004 33.9733 25.5415 33.9733ZM36.3348 36.88C34.3575 36.875 32.3775 36.8775 30.4027 36.8775C28.4331 36.8775 26.461 36.875 24.4888 36.88C24.3791 36.8825 24.3216 36.865 24.2955 36.8177C24.2772 36.7903 24.2746 36.7479 24.2772 36.688C24.2851 36.5534 24.2877 36.4138 24.2851 36.2767C24.2851 36.1296 24.2824 35.9776 24.2798 35.828C24.2772 35.7432 24.3059 35.6984 24.4104 35.7083C24.4496 35.7108 24.4888 35.7083 24.528 35.7083H36.2774C36.5804 35.7083 36.5203 35.7058 36.5229 35.9327C36.5229 36.0474 36.5203 36.162 36.5203 36.2767C36.5177 36.4188 36.5177 36.5634 36.5255 36.7055C36.5281 36.7554 36.5229 36.7903 36.5073 36.8177C36.489 36.865 36.4367 36.88 36.3348 36.88Z" fill="white"/>
<path d="M27.1398 9.93661C27.1398 9.7995 27.1659 9.74466 27.3383 9.75213C27.4637 9.75712 27.5029 9.78454 27.5029 9.89921C27.5003 10.2931 27.5003 10.6895 27.5003 11.0833C27.4977 12.088 27.4977 13.0926 27.4977 14.0972V33.2351C27.4977 33.3847 27.3305 33.4695 27.179 33.3997C27.1424 33.3822 27.1424 33.3573 27.1424 33.3299C27.1398 33.285 27.1424 33.2376 27.1424 33.1928V21.5834C27.1424 18.0834 27.1424 14.5833 27.1372 11.0833C27.1424 10.7019 27.1398 10.318 27.1398 9.93661Z" fill="white"/>
<path d="M33.723 33.2304C33.723 33.3426 33.7308 33.4174 33.5479 33.4149C33.3834 33.4124 33.3625 33.3626 33.3625 33.2379C33.3677 29.3565 33.3651 25.4726 33.3651 21.5912C33.3651 18.0886 33.3677 14.5861 33.3625 11.0861C33.3625 10.7047 33.3599 10.3258 33.3599 9.94438C33.3599 9.79232 33.399 9.74246 33.5741 9.75742C33.6812 9.7649 33.7334 9.78982 33.7203 9.88705C33.7151 9.90948 33.7177 9.93192 33.7177 9.95436V11.0861C33.7229 18.4651 33.723 25.849 33.723 33.2304Z" fill="white"/>
<path d="M42.5285 19.6611H39.8433V21.5856H42.5285V19.6611Z" fill="white"/>
<path d="M42.5285 22.249H39.8433V24.1735H42.5285V22.249Z" fill="white"/>
<path d="M42.5285 24.8367H39.8433V26.7612H42.5285V24.8367Z" fill="white"/>
<path d="M42.5285 27.4268H39.8433V29.3513H42.5285V27.4268Z" fill="white"/>
<path d="M42.5285 30.0142H39.8433V31.9387H42.5285V30.0142Z" fill="white"/>
<path d="M42.5285 32.6047H39.8433V34.5292H42.5285V32.6047Z" fill="white"/>
<path d="M46.3 19.6611H43.6147V21.5856H46.3V19.6611Z" fill="white"/>
<path d="M46.3 22.249H43.6147V24.1735H46.3V22.249Z" fill="white"/>
<path d="M42.5075 14.4839H39.8223V16.4084H42.5075V14.4839Z" fill="white"/>
<path d="M42.5075 17.0713H39.8223V18.9958H42.5075V17.0713Z" fill="white"/>
<path d="M46.2771 14.4839H43.5918V16.4084H46.2771V14.4839Z" fill="white"/>
<path d="M46.2771 17.0713H43.5918V18.9958H46.2771V17.0713Z" fill="white"/>
<path d="M46.3 24.8367H43.6147V26.7612H46.3V24.8367Z" fill="white"/>
<path d="M46.3 27.4268H43.6147V29.3513H46.3V27.4268Z" fill="white"/>
<path d="M46.3 30.0142H43.6147V31.9387H46.3V30.0142Z" fill="white"/>
<path d="M46.3 32.6047H43.6147V34.5292H46.3V32.6047Z" fill="white"/>
<path d="M5.23211 49.8252C4.50072 49.8252 3.81634 49.7056 3.17897 49.4638C2.54161 49.2219 1.98523 48.8879 1.51243 48.4566C1.03702 48.0254 0.666095 47.5243 0.399657 46.9459C0.133219 46.3701 0 45.7469 0 45.0763C0 44.4132 0.133219 43.7949 0.399657 43.2241C0.666095 42.6507 1.03702 42.1496 1.51243 41.7209C1.98784 41.2896 2.54161 40.953 3.17375 40.7087C3.80589 40.4644 4.49288 40.3423 5.23473 40.3423C5.92956 40.3423 6.53035 40.4221 7.03188 40.5791C7.53341 40.7362 8.03755 40.9979 8.54431 41.3619C8.61745 41.4092 8.6723 41.4591 8.7141 41.509C8.75589 41.5613 8.78201 41.6112 8.79507 41.6635C8.80813 41.7159 8.81597 41.7757 8.81597 41.848C8.81597 41.9976 8.75589 42.1222 8.63312 42.2219C8.51035 42.3216 8.36407 42.3765 8.19167 42.3889C8.01927 42.4014 7.85209 42.3516 7.69014 42.2419C7.35578 41.9901 7.01098 41.7956 6.65312 41.661C6.29525 41.5264 5.82507 41.4591 5.23734 41.4591C4.70446 41.4591 4.20293 41.5538 3.73275 41.7433C3.26256 41.9327 2.84984 42.1945 2.49198 42.5261C2.13412 42.8576 1.85723 43.2415 1.65871 43.6803C1.46019 44.119 1.36092 44.5852 1.36092 45.0838C1.36092 45.5898 1.46019 46.061 1.65871 46.4997C1.85723 46.9385 2.13673 47.3224 2.49198 47.6539C2.84723 47.9855 3.26256 48.2447 3.73275 48.4292C4.20293 48.6137 4.70446 48.7084 5.23734 48.7084C5.69707 48.7084 6.1333 48.6386 6.54602 48.5015C6.95613 48.3644 7.35317 48.1724 7.73193 47.9281C7.89388 47.8259 8.05584 47.7811 8.21257 47.791C8.36929 47.8035 8.50513 47.8583 8.61222 47.9581C8.72193 48.0578 8.77417 48.1924 8.77417 48.3669C8.77417 48.4467 8.75589 48.5239 8.71932 48.5987C8.68275 48.6735 8.6279 48.7433 8.55737 48.8056C8.0689 49.1447 7.54647 49.4014 6.99008 49.5759C6.43109 49.738 5.84597 49.8252 5.23211 49.8252Z" fill="white"/>
<path d="M11.5775 49.7083C11.3789 49.7083 11.2144 49.6509 11.0812 49.5363C10.9479 49.4216 10.8853 49.277 10.8853 49.105V43.835C10.8853 43.653 10.9506 43.5085 11.0812 43.3963C11.2118 43.2866 11.3763 43.2292 11.5775 43.2292C11.8674 43.2292 12.1103 43.3514 12.3089 43.5957L15.1143 47.1356L17.9224 43.5957C18.1209 43.3514 18.3664 43.2292 18.6538 43.2292C18.8627 43.2292 19.0299 43.2841 19.1553 43.3963C19.2807 43.506 19.346 43.653 19.346 43.835V49.105C19.346 49.2795 19.2833 49.4216 19.1553 49.5363C19.0273 49.6509 18.8627 49.7083 18.6538 49.7083C18.4552 49.7083 18.2907 49.6509 18.1601 49.5363C18.0295 49.4216 17.9642 49.277 17.9642 49.105V44.7948L18.3168 44.8895L15.8222 47.9682C15.5949 48.2449 15.352 48.382 15.0908 48.3771C14.8296 48.3721 14.5893 48.2375 14.3725 47.9682L11.917 44.8895L12.2697 44.7948V49.105C12.2697 49.2795 12.207 49.4216 12.079 49.5363C11.951 49.6509 11.7838 49.7083 11.5775 49.7083Z" fill="white"/>
<path d="M25.2693 49.7556C24.5196 49.7556 23.8535 49.616 23.2684 49.3343C22.6859 49.0551 22.2288 48.6662 21.8996 48.1751C21.5705 47.6815 21.4033 47.1156 21.4033 46.4749C21.4033 45.8268 21.56 45.2584 21.8709 44.7648C22.1817 44.2712 22.6154 43.8848 23.1665 43.6056C23.7177 43.3264 24.3498 43.1843 25.0655 43.1843C25.7708 43.1843 26.3768 43.3214 26.8836 43.5932C27.3903 43.8649 27.7769 44.2413 28.0434 44.7175C28.3098 45.1961 28.443 45.7445 28.443 46.3702C28.443 46.5198 28.383 46.6445 28.268 46.7442C28.1505 46.8439 28.0016 46.8913 27.8213 46.8913H22.3541V45.944H27.7769L27.2206 46.2755C27.2101 45.8816 27.1213 45.5276 26.9489 45.216C26.7765 44.9044 26.5336 44.6576 26.2175 44.4756C25.9014 44.2937 25.5174 44.2039 25.0655 44.2039C24.5509 44.2039 24.1095 44.3036 23.7438 44.5006C23.3781 44.6975 23.1012 44.9692 22.9105 45.3108C22.7198 45.6548 22.6258 46.0437 22.6258 46.4774C22.6258 46.9112 22.7381 47.2976 22.9654 47.6366C23.19 47.9757 23.5035 48.2449 23.9005 48.4418C24.2976 48.6388 24.7547 48.7385 25.2693 48.7385C25.5488 48.7385 25.8361 48.6936 26.1313 48.6014C26.4239 48.5116 26.6616 48.4069 26.8444 48.2873C26.9802 48.2 27.1265 48.1551 27.2859 48.1502C27.4452 48.1452 27.581 48.1876 27.6986 48.2748C27.8527 48.392 27.9337 48.5241 27.9415 48.6662C27.9493 48.8083 27.8788 48.9304 27.7247 49.0326C27.4165 49.2445 27.0351 49.419 26.578 49.5537C26.1208 49.6883 25.6846 49.7556 25.2693 49.7556Z" fill="white"/>
<path d="M30.8958 49.7206C30.6973 49.7206 30.5327 49.6633 30.3995 49.5486C30.2689 49.434 30.2036 49.2894 30.2036 49.1174V43.8474C30.2036 43.6654 30.2689 43.5208 30.3995 43.4086C30.5301 43.299 30.6947 43.2416 30.8958 43.2416C31.1022 43.2416 31.272 43.2965 31.3974 43.4086C31.5227 43.5183 31.588 43.6654 31.588 43.8474V49.1174C31.588 49.2919 31.5254 49.434 31.3974 49.5486C31.272 49.6633 31.1048 49.7206 30.8958 49.7206ZM35.4253 49.7206C35.2268 49.7206 35.0622 49.6633 34.9316 49.5486C34.801 49.434 34.7357 49.2894 34.7357 49.1174V45.732C34.7357 45.2359 34.5946 44.867 34.3151 44.6252C34.0356 44.3834 33.6699 44.2637 33.218 44.2637C32.7478 44.2637 32.3586 44.4058 32.053 44.69C31.7448 44.9742 31.5933 45.3381 31.5933 45.7794H30.7391C30.7391 45.2658 30.8566 44.8146 31.0917 44.4233C31.3268 44.0319 31.6507 43.7277 32.0687 43.5059C32.484 43.284 32.9594 43.1743 33.4923 43.1743C34.0069 43.1743 34.464 43.274 34.8611 43.471C35.2581 43.6679 35.5689 43.9596 35.791 44.341C36.013 44.7249 36.1227 45.1886 36.1227 45.732V49.1174C36.1227 49.2919 36.06 49.434 35.932 49.5486C35.8014 49.6633 35.6343 49.7206 35.4253 49.7206ZM39.9417 49.7206C39.7431 49.7206 39.5786 49.6633 39.448 49.5486C39.3174 49.434 39.2521 49.2894 39.2521 49.1174V45.732C39.2521 45.2359 39.111 44.867 38.8315 44.6252C38.552 44.3834 38.1863 44.2637 37.7318 44.2637C37.2616 44.2637 36.875 44.4058 36.572 44.69C36.269 44.9742 36.1175 45.3381 36.1175 45.7794H34.9917C34.9917 45.2658 35.117 44.8146 35.3704 44.4233C35.6238 44.0319 35.9791 43.7277 36.4336 43.5059C36.8907 43.284 37.4131 43.1743 38.0009 43.1743C38.5154 43.1743 38.9726 43.274 39.3696 43.471C39.7667 43.6679 40.0775 43.9596 40.2995 44.341C40.5216 44.7249 40.6313 45.1886 40.6313 45.732V49.1174C40.6313 49.2919 40.5686 49.434 40.4406 49.5486C40.3152 49.6633 40.148 49.7206 39.9417 49.7206Z" fill="white"/>
<path d="M46.015 49.7558C45.3541 49.7558 44.7638 49.6112 44.2387 49.3245C43.7137 49.0353 43.301 48.6464 42.998 48.1528C42.695 47.6593 42.5435 47.1008 42.5435 46.4776C42.5435 45.8544 42.708 45.2935 43.0398 44.7974C43.3689 44.2988 43.8182 43.9075 44.3824 43.6183C44.9466 43.3291 45.5814 43.187 46.2867 43.187C46.9919 43.187 47.6241 43.3316 48.1857 43.6183C48.7473 43.9075 49.1913 44.2988 49.5205 44.7974C49.8496 45.2935 50.0142 45.8544 50.0142 46.4776H49.4865C49.4865 47.1008 49.335 47.6593 49.032 48.1528C48.729 48.6464 48.3163 49.0378 47.7912 49.3245C47.2662 49.6112 46.6732 49.7558 46.015 49.7558ZM46.2867 48.6888C46.7464 48.6888 47.1591 48.5916 47.5196 48.3996C47.8801 48.2052 48.1648 47.9409 48.3737 47.6069C48.5827 47.2704 48.6846 46.8939 48.6846 46.4751C48.6846 46.0488 48.5801 45.6674 48.3737 45.3334C48.1648 44.9968 47.8801 44.7326 47.5196 44.5406C47.1591 44.3462 46.7464 44.2515 46.2867 44.2515C45.8348 44.2515 45.4246 44.3487 45.0589 44.5406C44.6932 44.7351 44.4033 44.9993 44.1917 45.3334C43.9801 45.6699 43.873 46.0488 43.873 46.4751C43.873 46.8939 43.9801 47.2704 44.1917 47.6069C44.4033 47.9434 44.6932 48.2077 45.0589 48.3996C45.4246 48.5941 45.8348 48.6888 46.2867 48.6888ZM49.322 49.7209C49.1234 49.7209 48.9589 49.6635 48.8283 49.5489C48.6977 49.4342 48.6324 49.2896 48.6324 49.1176V47.3053L48.891 46.0513L50.0168 46.4776V49.1176C50.0168 49.2921 49.9515 49.4342 49.8209 49.5489C49.6877 49.6635 49.5205 49.7209 49.322 49.7209Z" fill="white"/>
<path d="M52.9169 49.7086C52.7184 49.7086 52.5512 49.6487 52.4154 49.5316C52.2796 49.4119 52.2117 49.2673 52.2117 49.0928V41.0757C52.2117 40.8937 52.2796 40.7466 52.4154 40.632C52.5512 40.5173 52.7184 40.46 52.9169 40.46C53.1259 40.46 53.2931 40.5173 53.4263 40.632C53.5569 40.7466 53.6222 40.8937 53.6222 41.0757V44.4735H59.9123V41.0757C59.9123 40.8937 59.9802 40.7466 60.116 40.632C60.2518 40.5173 60.419 40.46 60.6175 40.46C60.8265 40.46 60.9937 40.5173 61.1191 40.632C61.2444 40.7466 61.3098 40.8937 61.3098 41.0757V49.0928C61.3098 49.2673 61.2471 49.4119 61.1191 49.5316C60.9911 49.6512 60.8265 49.7086 60.6175 49.7086C60.419 49.7086 60.2518 49.6487 60.116 49.5316C59.9802 49.4119 59.9123 49.2673 59.9123 49.0928V45.5654H53.6222V49.0928C53.6222 49.2673 53.5569 49.4119 53.4263 49.5316C53.2957 49.6512 53.1233 49.7086 52.9169 49.7086Z" fill="white"/>
<path d="M63.6005 49.7083C63.3471 49.7083 63.1538 49.6135 63.0179 49.4241C62.8821 49.2346 62.8691 49.0327 62.9761 48.8208L66.7846 40.876C66.9205 40.5993 67.1425 40.4622 67.4481 40.4622C67.7746 40.4622 67.9941 40.5993 68.1116 40.876L71.9358 48.8457C72.035 49.0676 72.0194 49.267 71.8888 49.444C71.7582 49.621 71.5622 49.7108 71.2984 49.7108C71.1626 49.7108 71.0346 49.6784 70.9118 49.6111C70.7891 49.5437 70.7029 49.4515 70.648 49.3319L67.2862 42.0377H67.6649L64.2483 49.3319C64.1856 49.459 64.0915 49.5537 63.9714 49.616C63.8512 49.6759 63.7258 49.7083 63.6005 49.7083ZM64.3188 47.6716L64.8621 46.6545H70.1778L70.7211 47.6716H64.3188Z" fill="white"/>
<path d="M0.524087 57.7255C0.474456 57.7255 0.435274 57.713 0.40654 57.6856C0.377807 57.6607 0.364746 57.6258 0.364746 57.5859V53.6721C0.364746 53.6322 0.377807 53.5998 0.40654 53.5724C0.432662 53.5474 0.471844 53.5325 0.524087 53.5325H0.874113C0.923744 53.5325 0.962926 53.5449 0.994272 53.5724C1.02301 53.5973 1.03868 53.6322 1.03868 53.6721V57.1846H2.71567V53.6721C2.71567 53.6322 2.73134 53.5998 2.76008 53.5724C2.78881 53.5474 2.82799 53.5325 2.8724 53.5325H3.22243C3.27206 53.5325 3.31124 53.5449 3.34258 53.5724C3.37132 53.5973 3.38699 53.6322 3.38699 53.6721V57.1846H5.06398V53.6721C5.06398 53.6322 5.07966 53.5998 5.10839 53.5724C5.13712 53.5474 5.17631 53.5325 5.22071 53.5325H5.57074C5.62037 53.5325 5.66216 53.5449 5.6909 53.5724C5.71963 53.5973 5.7353 53.6322 5.7353 53.6721V57.5859C5.7353 57.6258 5.71963 57.6582 5.6909 57.6856C5.66216 57.713 5.62037 57.7255 5.57074 57.7255H0.524087Z" fill="white"/>
<path d="M6.99755 57.7255C6.95314 57.7255 6.91396 57.713 6.88523 57.6856C6.85649 57.6607 6.84082 57.6258 6.84082 57.5859V54.749C6.84082 54.7091 6.85649 54.6767 6.88523 54.6493C6.91396 54.6243 6.95314 54.6094 6.99755 54.6094H7.31884C7.36325 54.6094 7.40243 54.6218 7.43116 54.6493C7.4599 54.6742 7.47557 54.7091 7.47557 54.749V55.8982H8.09987L9.02457 54.7016C9.04808 54.6742 9.07159 54.6518 9.10032 54.6368C9.12905 54.6218 9.16562 54.6119 9.21003 54.6119H9.56528C9.60708 54.6119 9.64103 54.6193 9.66715 54.6368C9.69589 54.6518 9.70895 54.6767 9.70895 54.7091C9.70895 54.7166 9.70634 54.729 9.6985 54.7415C9.69066 54.754 9.68283 54.7689 9.67499 54.7814L8.64842 56.1026L9.81343 57.551C9.83694 57.5759 9.84739 57.6008 9.84739 57.6283C9.84739 57.6607 9.83433 57.6831 9.81082 57.7006C9.7847 57.7155 9.75335 57.7255 9.71156 57.7255H9.29362C9.25182 57.7255 9.21787 57.718 9.19175 57.7006C9.16562 57.6856 9.1395 57.6632 9.11599 57.6357L8.11032 56.3843H7.48079V57.5859C7.48079 57.6258 7.46512 57.6582 7.43639 57.6856C7.40765 57.7105 7.36847 57.7255 7.32407 57.7255H6.99755Z" fill="white"/>
<path d="M11.8034 57.785C11.456 57.785 11.1661 57.7276 10.9336 57.6105C10.7011 57.4933 10.5235 57.3338 10.4007 57.1294C10.2779 56.9249 10.21 56.6906 10.1944 56.4264C10.1891 56.3591 10.1865 56.2718 10.1865 56.1671C10.1865 56.0624 10.1891 55.9776 10.1944 55.9128C10.2074 55.6461 10.2779 55.4093 10.4033 55.2073C10.5287 55.0029 10.709 54.8434 10.9414 54.7287C11.1739 54.614 11.4612 54.5542 11.8034 54.5542C12.1456 54.5542 12.433 54.6115 12.6654 54.7287C12.8979 54.8434 13.0782 55.0029 13.2035 55.2073C13.3289 55.4118 13.3995 55.6461 13.4125 55.9128C13.4177 55.9776 13.4204 56.0624 13.4204 56.1671C13.4204 56.2718 13.4177 56.3591 13.4125 56.4264C13.3995 56.6906 13.3315 56.9249 13.2062 57.1294C13.0834 57.3338 12.9058 57.4958 12.6733 57.6105C12.4408 57.7276 12.1509 57.785 11.8034 57.785ZM11.8034 57.3263C12.0855 57.3263 12.3128 57.2465 12.4826 57.0895C12.6524 56.9324 12.7438 56.7006 12.7569 56.3989C12.7621 56.3391 12.7647 56.2643 12.7647 56.1721C12.7647 56.0798 12.7621 56.0051 12.7569 55.9452C12.7438 55.6411 12.6524 55.4118 12.4826 55.2547C12.3128 55.0976 12.0882 55.0179 11.8034 55.0179C11.5213 55.0179 11.2941 55.0976 11.1217 55.2547C10.9493 55.4118 10.8605 55.6436 10.85 55.9452C10.8448 56.0051 10.8422 56.0798 10.8422 56.1721C10.8422 56.2643 10.8448 56.3391 10.85 56.3989C10.8605 56.7031 10.9493 56.9324 11.1217 57.0895C11.2941 57.2465 11.5213 57.3263 11.8034 57.3263Z" fill="white"/>
<path d="M14.042 57.7254C13.9976 57.7254 13.9584 57.7105 13.9245 57.6831C13.8931 57.6556 13.8774 57.6207 13.8774 57.5808V57.359C13.8774 57.2742 13.9245 57.2318 14.0211 57.2269C14.1622 57.2219 14.2823 57.1645 14.3764 57.0499C14.473 56.9352 14.5461 56.7557 14.5958 56.5064C14.6454 56.2571 14.6715 55.9281 14.6715 55.5167V54.7514C14.6715 54.7115 14.6872 54.6791 14.7159 54.6517C14.7447 54.6268 14.7839 54.6118 14.8283 54.6118H17.0068C17.0512 54.6118 17.0904 54.6243 17.1191 54.6517C17.1478 54.6766 17.1635 54.7115 17.1635 54.7514V57.5883C17.1635 57.6282 17.1478 57.6606 17.1191 57.688C17.0904 57.713 17.0512 57.7279 17.0068 57.7279H16.6777C16.6306 57.7279 16.5941 57.7155 16.5679 57.688C16.5418 57.6606 16.5262 57.6282 16.5262 57.5883V55.0929H15.2932V55.584C15.2932 55.9679 15.2671 56.2945 15.2175 56.5687C15.1678 56.8429 15.0895 57.0623 14.9876 57.2318C14.8857 57.4014 14.7551 57.526 14.5984 57.6058C14.4443 57.6855 14.2562 57.7254 14.042 57.7254Z" fill="white"/>
<path d="M19.1778 57.7856C18.9505 57.7856 18.7416 57.7457 18.5535 57.6659C18.3654 57.5861 18.2165 57.4789 18.1016 57.3418C17.9867 57.2072 17.9292 57.0527 17.9292 56.8807C17.9292 56.6064 18.0572 56.3871 18.3132 56.2225C18.5692 56.058 18.9009 55.9508 19.3136 55.8985L20.335 55.7738V55.5993C20.335 55.4074 20.2723 55.2578 20.1469 55.1506C20.0215 55.0434 19.8178 54.9886 19.5331 54.9886C19.3267 54.9886 19.1621 55.0235 19.0367 55.0957C18.9114 55.168 18.8225 55.2603 18.7729 55.37C18.7468 55.4298 18.6972 55.4597 18.6293 55.4597H18.321C18.2714 55.4597 18.2322 55.4472 18.2087 55.4198C18.1826 55.3949 18.1721 55.3625 18.1721 55.3276C18.1721 55.2678 18.1982 55.193 18.2505 55.1057C18.3027 55.0185 18.3837 54.9312 18.4934 54.849C18.6031 54.7642 18.7442 54.6944 18.914 54.6371C19.0864 54.5797 19.2953 54.5498 19.5409 54.5498C19.8152 54.5498 20.045 54.5797 20.2331 54.642C20.4212 54.7044 20.5675 54.7866 20.6746 54.8913C20.7817 54.996 20.86 55.1132 20.907 55.2453C20.9541 55.3774 20.9802 55.5096 20.9802 55.6467V57.5861C20.9802 57.626 20.9645 57.6584 20.9358 57.6859C20.907 57.7108 20.8679 57.7257 20.8235 57.7257H20.5074C20.4577 57.7257 20.4186 57.7133 20.3898 57.6859C20.3637 57.6609 20.348 57.626 20.348 57.5861V57.3294C20.288 57.4017 20.2096 57.4715 20.1077 57.5413C20.0085 57.6111 19.8805 57.6684 19.7316 57.7158C19.5827 57.7631 19.3972 57.7856 19.1778 57.7856ZM19.3241 57.3369C19.5122 57.3369 19.6819 57.302 19.8387 57.2322C19.9928 57.1623 20.1156 57.0527 20.2044 56.9056C20.2932 56.7585 20.3376 56.5715 20.3376 56.3497V56.1826L19.5435 56.2849C19.2196 56.3247 18.9741 56.392 18.8095 56.4843C18.6449 56.579 18.5639 56.6962 18.5639 56.8408C18.5639 56.9529 18.6005 57.0452 18.6763 57.12C18.752 57.1948 18.8487 57.2496 18.9636 57.2845C19.0785 57.3194 19.1987 57.3369 19.3241 57.3369Z" fill="white"/>
<path d="M25.0804 57.785C24.7565 57.785 24.477 57.7301 24.2419 57.6205C24.0068 57.5108 23.8266 57.3537 23.6986 57.1468C23.5706 56.9424 23.5027 56.6956 23.4922 56.4089C23.487 56.3491 23.4844 56.2693 23.4844 56.1696C23.4844 56.0699 23.487 55.9901 23.4922 55.9303C23.5027 55.6436 23.5706 55.3968 23.6986 55.1924C23.8266 54.988 24.0068 54.8284 24.2419 54.7187C24.477 54.609 24.7565 54.5542 25.0804 54.5542C25.3442 54.5542 25.5715 54.5866 25.7622 54.6489C25.9502 54.7137 26.107 54.7935 26.2323 54.8932C26.3551 54.9929 26.4492 55.1001 26.5092 55.2173C26.5719 55.332 26.6033 55.4417 26.6085 55.5464C26.6137 55.5863 26.598 55.6187 26.5667 55.6411C26.5354 55.6635 26.4962 55.676 26.4492 55.676H26.12C26.0756 55.676 26.039 55.666 26.0182 55.6486C25.9946 55.6311 25.9711 55.5987 25.9502 55.5563C25.8693 55.3619 25.7569 55.2223 25.6159 55.1425C25.4748 55.0627 25.2998 55.0229 25.0882 55.0229C24.814 55.0229 24.5919 55.0976 24.4195 55.2447C24.2471 55.3918 24.1557 55.6286 24.1426 55.9577C24.1374 56.1023 24.1374 56.2419 24.1426 56.3765C24.1557 56.7081 24.2497 56.9449 24.4195 57.092C24.5919 57.2365 24.814 57.3113 25.0882 57.3113C25.2972 57.3113 25.4748 57.2714 25.6159 57.1917C25.7569 57.1119 25.8693 56.9748 25.9502 56.7779C25.9737 56.733 25.9946 56.7031 26.0182 56.6856C26.0417 56.6682 26.0756 56.6582 26.12 56.6582H26.4492C26.4936 56.6582 26.5327 56.6707 26.5667 56.6931C26.598 56.718 26.6111 56.7479 26.6085 56.7878C26.6033 56.8726 26.5824 56.9573 26.5458 57.0446C26.5092 57.1318 26.4518 57.2216 26.3708 57.3113C26.2898 57.4011 26.1906 57.4809 26.073 57.5507C25.9555 57.6205 25.8118 57.6753 25.6446 57.7177C25.4801 57.765 25.2894 57.785 25.0804 57.785Z" fill="white"/>
<path d="M27.5729 57.7253C27.5285 57.7253 27.4919 57.7129 27.4632 57.6904C27.4344 57.6655 27.4214 57.6356 27.4214 57.5957V54.7289C27.4214 54.6965 27.4371 54.6691 27.4658 54.6491C27.4945 54.6267 27.5259 54.6167 27.5572 54.6167H27.9072C27.9804 54.6167 28.0379 54.6491 28.0796 54.7114L29.2447 56.6135L30.4149 54.7114C30.4567 54.6466 30.5142 54.6167 30.5873 54.6167H30.9295C30.9661 54.6167 30.9974 54.6267 31.0261 54.6491C31.0523 54.6715 31.0679 54.699 31.0679 54.7289V57.5957C31.0679 57.6356 31.0549 57.668 31.0261 57.6904C30.9974 57.7154 30.9634 57.7253 30.9243 57.7253H30.5899C30.5455 57.7253 30.5089 57.7129 30.4802 57.6904C30.4541 57.6655 30.4384 57.6356 30.4384 57.5957V55.2075L30.6787 55.2324L29.5633 57.0747C29.5398 57.1146 29.5137 57.1495 29.4824 57.1819C29.451 57.2143 29.4014 57.2292 29.3387 57.2292H29.1611C29.101 57.2292 29.0566 57.2143 29.0252 57.1819C28.9939 57.1495 28.9625 57.1146 28.9364 57.0747L27.855 55.3222L28.0666 55.3047V57.5957C28.0666 57.6356 28.0535 57.668 28.0248 57.6904C27.9961 57.7129 27.9595 57.7253 27.9151 57.7253H27.5729Z" fill="white"/>
<path d="M33.5107 57.7849C33.0405 57.7849 32.667 57.6578 32.3875 57.406C32.108 57.1517 31.9565 56.8077 31.9278 56.369C31.9225 56.3166 31.9199 56.2493 31.9199 56.1695C31.9199 56.0873 31.9225 56.02 31.9278 55.9701C31.946 55.6859 32.0218 55.4391 32.155 55.2247C32.2882 55.0103 32.4685 54.8458 32.6983 54.7311C32.9282 54.6165 33.1999 54.5566 33.5107 54.5566C33.8581 54.5566 34.1481 54.6215 34.3832 54.7486C34.6183 54.8757 34.7985 55.0577 34.9213 55.292C35.044 55.5264 35.1067 55.8031 35.1067 56.1172V56.2194C35.1067 56.2643 35.0911 56.2967 35.0623 56.3216C35.0336 56.3465 34.9944 56.3565 34.95 56.3565H32.5808C32.5808 56.3615 32.5808 56.369 32.5808 56.3814C32.5808 56.3939 32.5808 56.4039 32.5808 56.4113C32.5912 56.5759 32.6304 56.7279 32.7036 56.87C32.7767 57.0121 32.8812 57.1268 33.0196 57.2141C33.1555 57.3013 33.32 57.3462 33.5133 57.3462C33.6779 57.3462 33.8137 57.3237 33.9234 57.2814C34.0331 57.2365 34.122 57.1891 34.1899 57.1343C34.2578 57.0794 34.3048 57.0396 34.3257 57.0121C34.3675 56.9598 34.3988 56.9299 34.4223 56.9199C34.4459 56.9099 34.4824 56.9049 34.5321 56.9049H34.8612C34.9056 56.9049 34.9448 56.9149 34.9735 56.9373C35.0022 56.9598 35.0153 56.9897 35.0101 57.0296C35.0049 57.0894 34.9683 57.1617 34.9004 57.249C34.8325 57.3337 34.7332 57.4185 34.6052 57.5032C34.4772 57.588 34.3231 57.6553 34.1402 57.7101C33.9574 57.765 33.7484 57.7849 33.5107 57.7849ZM32.5808 55.9427H34.4563V55.9252C34.4563 55.7457 34.4197 55.5862 34.344 55.4466C34.2682 55.307 34.1611 55.1973 34.0175 55.115C33.8764 55.0328 33.7066 54.9929 33.5107 54.9929C33.3148 54.9929 33.1476 55.0328 33.0066 55.115C32.8681 55.1973 32.761 55.307 32.6879 55.4466C32.6148 55.5862 32.5782 55.7457 32.5782 55.9252V55.9427H32.5808Z" fill="white"/>
<path d="M37.0158 57.7255C36.9714 57.7255 36.9322 57.713 36.9035 57.6856C36.8748 57.6607 36.8591 57.6258 36.8591 57.5859V55.093H35.668C35.6236 55.093 35.5844 55.0805 35.5556 55.0531C35.5269 55.0282 35.5112 54.9933 35.5112 54.9534V54.749C35.5112 54.7091 35.5269 54.6767 35.5556 54.6493C35.5844 54.6243 35.6236 54.6094 35.668 54.6094H38.6824C38.7268 54.6094 38.766 54.6218 38.7947 54.6493C38.8234 54.6742 38.8391 54.7091 38.8391 54.749V54.9534C38.8391 54.9933 38.8234 55.0257 38.7947 55.0531C38.766 55.078 38.7268 55.093 38.6824 55.093H37.4912V57.5884C37.4912 57.6283 37.4782 57.6607 37.4494 57.6881C37.4207 57.7155 37.3841 57.728 37.3319 57.728H37.0158V57.7255Z" fill="white"/>
<path d="M39.5913 57.7255C39.5469 57.7255 39.5077 57.713 39.479 57.6856C39.4502 57.6607 39.4346 57.6258 39.4346 57.5859V54.749C39.4346 54.7091 39.4502 54.6767 39.479 54.6493C39.5077 54.6243 39.5469 54.6094 39.5913 54.6094H39.9204C39.9648 54.6094 40.004 54.6218 40.0301 54.6493C40.0563 54.6742 40.0719 54.7091 40.0719 54.749V55.8982H41.9422V54.749C41.9422 54.7091 41.9579 54.6767 41.9866 54.6493C42.0154 54.6243 42.0545 54.6094 42.099 54.6094H42.4202C42.4647 54.6094 42.5038 54.6218 42.5326 54.6493C42.5613 54.6742 42.577 54.7091 42.577 54.749V57.5859C42.577 57.6258 42.5613 57.6582 42.5326 57.6856C42.5038 57.7105 42.4647 57.7255 42.4202 57.7255H42.099C42.0545 57.7255 42.0154 57.713 41.9866 57.6856C41.9579 57.6582 41.9422 57.6258 41.9422 57.5859V56.3768H40.0719V57.5859C40.0719 57.6258 40.0589 57.6582 40.0301 57.6856C40.0014 57.713 39.9648 57.7255 39.9204 57.7255H39.5913Z" fill="white"/>
<path d="M45.0632 57.785C44.7158 57.785 44.4258 57.7276 44.1934 57.6105C43.9609 57.4933 43.7833 57.3338 43.6605 57.1294C43.5377 56.9249 43.4698 56.6906 43.4541 56.4264C43.4489 56.3591 43.4463 56.2718 43.4463 56.1671C43.4463 56.0624 43.4489 55.9776 43.4541 55.9128C43.4672 55.6461 43.5377 55.4093 43.6631 55.2073C43.7885 55.0029 43.9687 54.8434 44.2012 54.7287C44.4337 54.614 44.721 54.5542 45.0632 54.5542C45.4054 54.5542 45.6927 54.6115 45.9252 54.7287C46.1577 54.8434 46.3379 55.0029 46.4633 55.2073C46.5887 55.4118 46.6592 55.6461 46.6723 55.9128C46.6775 55.9776 46.6801 56.0624 46.6801 56.1671C46.6801 56.2718 46.6775 56.3591 46.6723 56.4264C46.6592 56.6906 46.5913 56.9249 46.4659 57.1294C46.3432 57.3338 46.1655 57.4958 45.933 57.6105C45.698 57.7276 45.408 57.785 45.0632 57.785ZM45.0632 57.3263C45.3453 57.3263 45.5726 57.2465 45.7424 57.0895C45.9122 56.9324 46.0036 56.7006 46.0166 56.3989C46.0219 56.3391 46.0245 56.2643 46.0245 56.1721C46.0245 56.0798 46.0219 56.0051 46.0166 55.9452C46.0036 55.6411 45.9122 55.4118 45.7424 55.2547C45.5726 55.0976 45.3479 55.0179 45.0632 55.0179C44.7811 55.0179 44.5538 55.0976 44.3814 55.2547C44.209 55.4118 44.1202 55.6436 44.1098 55.9452C44.1046 56.0051 44.1019 56.0798 44.1019 56.1721C44.1019 56.2643 44.1046 56.3391 44.1098 56.3989C44.1202 56.7031 44.209 56.9324 44.3814 57.0895C44.5512 57.2465 44.7785 57.3263 45.0632 57.3263Z" fill="white"/>
<path d="M47.6924 57.7255C47.648 57.7255 47.6088 57.713 47.5801 57.6856C47.5513 57.6607 47.5356 57.6258 47.5356 57.5859V54.749C47.5356 54.7091 47.5513 54.6767 47.5801 54.6493C47.6088 54.6243 47.648 54.6094 47.6924 54.6094H49.7403C49.7847 54.6094 49.8239 54.6218 49.85 54.6493C49.8761 54.6742 49.8918 54.7091 49.8918 54.749V54.9534C49.8918 54.9933 49.8787 55.0257 49.85 55.0531C49.8213 55.0805 49.7847 55.093 49.7403 55.093H48.173V57.5884C48.173 57.6283 48.1599 57.6607 48.1312 57.6881C48.1025 57.7155 48.0659 57.728 48.0215 57.728H47.6924V57.7255Z" fill="white"/>
<path d="M51.8635 57.785C51.5161 57.785 51.2261 57.7276 50.9937 57.6105C50.7612 57.4933 50.5835 57.3338 50.4608 57.1294C50.338 56.9249 50.2701 56.6906 50.2544 56.4264C50.2492 56.3591 50.2466 56.2718 50.2466 56.1671C50.2466 56.0624 50.2492 55.9776 50.2544 55.9128C50.2675 55.6461 50.338 55.4093 50.4634 55.2073C50.5888 55.0029 50.769 54.8434 51.0015 54.7287C51.234 54.614 51.5213 54.5542 51.8635 54.5542C52.2057 54.5542 52.493 54.6115 52.7255 54.7287C52.958 54.8434 53.1382 55.0029 53.2636 55.2073C53.389 55.4118 53.4595 55.6461 53.4726 55.9128C53.4778 55.9776 53.4804 56.0624 53.4804 56.1671C53.4804 56.2718 53.4778 56.3591 53.4726 56.4264C53.4595 56.6906 53.3916 56.9249 53.2662 57.1294C53.1434 57.3338 52.9658 57.4958 52.7333 57.6105C52.5009 57.7276 52.2109 57.785 51.8635 57.785ZM51.8635 57.3263C52.1456 57.3263 52.3729 57.2465 52.5427 57.0895C52.7124 56.9324 52.8039 56.7006 52.8169 56.3989C52.8222 56.3391 52.8248 56.2643 52.8248 56.1721C52.8248 56.0798 52.8222 56.0051 52.8169 55.9452C52.8039 55.6411 52.7124 55.4118 52.5427 55.2547C52.3729 55.0976 52.1482 55.0179 51.8635 55.0179C51.5814 55.0179 51.3541 55.0976 51.1817 55.2547C51.0093 55.4118 50.9205 55.6436 50.9101 55.9452C50.9048 56.0051 50.9022 56.0798 50.9022 56.1721C50.9022 56.2643 50.9048 56.3391 50.9101 56.3989C50.9205 56.7031 51.0093 56.9324 51.1817 57.0895C51.3541 57.2465 51.5814 57.3263 51.8635 57.3263Z" fill="white"/>
<path d="M55.8074 58.3836C55.763 58.3836 55.7238 58.3711 55.695 58.3437C55.6663 58.3163 55.6506 58.2839 55.6506 58.244V57.3815C55.6506 57.3416 55.6663 57.3092 55.695 57.2818C55.7238 57.2568 55.763 57.2419 55.8074 57.2419H55.8413C55.9641 57.2369 56.0686 57.1771 56.1574 57.0599C56.2436 56.9427 56.3115 56.7558 56.3559 56.504C56.4003 56.2497 56.4238 55.9206 56.4238 55.5143V54.749C56.4238 54.7091 56.4395 54.6767 56.4682 54.6493C56.497 54.6243 56.5361 54.6094 56.5806 54.6094H58.7643C58.8087 54.6094 58.8479 54.6218 58.8766 54.6493C58.9054 54.6742 58.921 54.7091 58.921 54.749V57.2319H59.2423C59.292 57.2319 59.3311 57.2444 59.3599 57.2718C59.386 57.2967 59.4017 57.3316 59.4017 57.3715V58.244C59.4017 58.2839 59.3886 58.3163 59.3599 58.3437C59.3311 58.3686 59.2946 58.3836 59.2423 58.3836H58.921C58.8766 58.3836 58.8374 58.3711 58.8087 58.3437C58.78 58.3188 58.7643 58.2839 58.7643 58.244V57.723H56.2854V58.244C56.2854 58.2839 56.2697 58.3163 56.241 58.3437C56.2122 58.3686 56.1731 58.3836 56.1287 58.3836H55.8074ZM56.6563 57.2469L58.2863 57.2344V55.093H57.0455V55.5841C57.0455 56.0079 57.0116 56.3519 56.9436 56.6211C56.8757 56.8929 56.7791 57.0998 56.6563 57.2469Z" fill="white"/>
<path d="M61.5383 57.7849C61.0681 57.7849 60.6946 57.6578 60.4151 57.406C60.1356 57.1517 59.9841 56.8077 59.9553 56.369C59.9501 56.3166 59.9475 56.2493 59.9475 56.1695C59.9475 56.0873 59.9501 56.02 59.9553 55.9701C59.9736 55.6859 60.0494 55.4391 60.1826 55.2247C60.3158 55.0103 60.4961 54.8458 60.7259 54.7311C60.9558 54.6165 61.2275 54.5566 61.5383 54.5566C61.8857 54.5566 62.1757 54.6215 62.4108 54.7486C62.6459 54.8757 62.8261 55.0577 62.9489 55.292C63.0716 55.5264 63.1343 55.8031 63.1343 56.1172V56.2194C63.1343 56.2643 63.1186 56.2967 63.0899 56.3216C63.0612 56.3465 63.022 56.3565 62.9776 56.3565H60.6084C60.6084 56.3615 60.6084 56.369 60.6084 56.3814C60.6084 56.3939 60.6084 56.4039 60.6084 56.4113C60.6188 56.5759 60.658 56.7279 60.7312 56.87C60.8043 57.0121 60.9088 57.1268 61.0472 57.2141C61.1831 57.3013 61.3476 57.3462 61.5409 57.3462C61.7055 57.3462 61.8413 57.3237 61.951 57.2814C62.0607 57.2365 62.1495 57.1891 62.2175 57.1343C62.2854 57.0794 62.3324 57.0396 62.3533 57.0121C62.3951 56.9598 62.4264 56.9299 62.4499 56.9199C62.4734 56.9099 62.51 56.9049 62.5596 56.9049H62.8888C62.9332 56.9049 62.9724 56.9149 63.0011 56.9373C63.0298 56.9598 63.0429 56.9897 63.0377 57.0296C63.0324 57.0894 62.9959 57.1617 62.928 57.249C62.86 57.3337 62.7608 57.4185 62.6328 57.5032C62.5048 57.588 62.3507 57.6553 62.1678 57.7101C61.985 57.765 61.776 57.7849 61.5383 57.7849ZM60.6084 55.9427H62.4839V55.9252C62.4839 55.7457 62.4473 55.5862 62.3716 55.4466C62.2958 55.307 62.1887 55.1973 62.0451 55.115C61.904 55.0328 61.7342 54.9929 61.5383 54.9929C61.3424 54.9929 61.1752 55.0328 61.0342 55.115C60.8957 55.1973 60.7886 55.307 60.7155 55.4466C60.6423 55.5862 60.6058 55.7457 60.6058 55.9252V55.9427H60.6084Z" fill="white"/>
<path d="M63.7561 57.7254C63.7117 57.7254 63.6725 57.7105 63.6386 57.6831C63.6072 57.6556 63.5916 57.6207 63.5916 57.5808V57.359C63.5916 57.2742 63.6386 57.2318 63.7352 57.2269C63.8763 57.2219 63.9964 57.1645 64.0905 57.0499C64.1871 56.9352 64.2603 56.7557 64.3099 56.5064C64.3595 56.2571 64.3856 55.9281 64.3856 55.5167V54.7514C64.3856 54.7115 64.4013 54.6791 64.43 54.6517C64.4588 54.6268 64.498 54.6118 64.5424 54.6118H66.7209C66.7653 54.6118 66.8045 54.6243 66.8332 54.6517C66.8619 54.6766 66.8776 54.7115 66.8776 54.7514V57.5883C66.8776 57.6282 66.8619 57.6606 66.8332 57.688C66.8045 57.713 66.7653 57.7279 66.7209 57.7279H66.3918C66.3447 57.7279 66.3082 57.7155 66.2821 57.688C66.2559 57.6606 66.2403 57.6282 66.2403 57.5883V55.0929H65.0073V55.584C65.0073 55.9679 64.9812 56.2945 64.9316 56.5687C64.8819 56.8429 64.8036 57.0623 64.7017 57.2318C64.5998 57.4014 64.4692 57.526 64.3125 57.6058C64.1584 57.6855 63.9729 57.7254 63.7561 57.7254Z" fill="white"/>
<path d="M68.8941 57.7856C68.6669 57.7856 68.4579 57.7457 68.2698 57.6659C68.0817 57.5861 67.9328 57.4789 67.8179 57.3418C67.703 57.2072 67.6455 57.0527 67.6455 56.8807C67.6455 56.6064 67.7735 56.3871 68.0295 56.2225C68.2855 56.058 68.6172 55.9508 69.0299 55.8985L70.0513 55.7738V55.5993C70.0513 55.4074 69.9886 55.2578 69.8632 55.1506C69.7378 55.0434 69.5341 54.9886 69.2494 54.9886C69.043 54.9886 68.8784 55.0235 68.7531 55.0957C68.6277 55.168 68.5389 55.2603 68.4892 55.37C68.4631 55.4298 68.4135 55.4597 68.3456 55.4597H68.0373C67.9877 55.4597 67.9485 55.4472 67.925 55.4198C67.8989 55.3949 67.8884 55.3625 67.8884 55.3276C67.8884 55.2678 67.9146 55.193 67.9668 55.1057C68.019 55.0185 68.1 54.9312 68.2097 54.849C68.3194 54.7642 68.4605 54.6944 68.6303 54.6371C68.8027 54.5797 69.0117 54.5498 69.2572 54.5498C69.5315 54.5498 69.7613 54.5797 69.9494 54.642C70.1375 54.7044 70.2838 54.7866 70.3909 54.8913C70.498 54.996 70.5763 55.1132 70.6233 55.2453C70.6704 55.3774 70.6965 55.5096 70.6965 55.6467V57.5861C70.6965 57.626 70.6808 57.6584 70.6521 57.6859C70.6233 57.7108 70.5842 57.7257 70.5398 57.7257H70.2237C70.1741 57.7257 70.1349 57.7133 70.1061 57.6859C70.08 57.6609 70.0643 57.626 70.0643 57.5861V57.3294C70.0043 57.4017 69.9259 57.4715 69.824 57.5413C69.7248 57.6111 69.5968 57.6684 69.4479 57.7158C69.2964 57.7631 69.1109 57.7856 68.8941 57.7856ZM69.0378 57.3369C69.2258 57.3369 69.3956 57.302 69.5524 57.2322C69.7065 57.1623 69.8293 57.0527 69.9181 56.9056C70.0069 56.7585 70.0513 56.5715 70.0513 56.3497V56.1826L69.2572 56.2849C68.9333 56.3247 68.6877 56.392 68.5232 56.4843C68.3586 56.579 68.2776 56.6962 68.2776 56.8408C68.2776 56.9529 68.3142 57.0452 68.39 57.12C68.4657 57.1948 68.5624 57.2496 68.6773 57.2845C68.7948 57.3194 68.9124 57.3369 69.0378 57.3369Z" fill="white"/>
</g>
<defs>
<clipPath id="clip0_0_3">
<rect width="72" height="59" fill="white"/>
</clipPath>
</defs>
</svg>
