<svg width="35" height="34" viewBox="0 0 35 34" fill="none" xmlns="http://www.w3.org/2000/svg">
<path d="M17.2574 33.8882C26.6244 33.8882 34.2179 26.4911 34.2179 17.3662C34.2179 8.24139 26.6244 0.844238 17.2574 0.844238C7.89035 0.844238 0.296875 8.24139 0.296875 17.3662C0.296875 26.4911 7.89035 33.8882 17.2574 33.8882Z" fill="#F9F9F9"/>
<path d="M25.3971 11.4222C25.2932 12.1813 25.0738 13.0192 24.8891 13.8684C24.1213 17.4169 23.342 20.9597 22.5684 24.5082C22.3375 25.5823 21.7025 25.8241 20.7962 25.1717C19.5146 24.2495 18.2331 23.3328 16.9573 22.405C16.7668 22.2644 16.6629 22.2812 16.4954 22.4443C15.8662 23.0629 15.2139 23.6534 14.5731 24.2607C14.5269 24.3057 14.4807 24.3563 14.423 24.3901C14.2441 24.5082 14.0305 24.6656 13.8457 24.5644C13.713 24.4913 13.8111 24.2439 13.8226 24.0752C13.9035 22.9392 13.9901 21.8032 14.0651 20.6617C14.0766 20.4648 14.1344 20.3186 14.2845 20.1837C16.6975 18.0692 19.1048 15.9491 21.512 13.829C21.7025 13.6603 21.8872 13.4916 22.0777 13.3173C22.1239 13.2723 22.1817 13.2161 22.1528 13.1486C22.1239 13.0699 22.0431 13.0586 21.9565 13.053C21.7429 13.0417 21.5697 13.1542 21.4023 13.2554C19.3934 14.487 17.3902 15.7129 15.3871 16.9445C14.2267 17.6531 13.0722 18.3672 11.9118 19.0814C11.7617 19.177 11.629 19.1995 11.4442 19.1433C10.1338 18.7384 8.81762 18.3447 7.50719 17.9455C7.20123 17.8499 6.826 17.7543 6.80291 17.3887C6.77404 17.0063 7.13196 16.8376 7.43792 16.7139C8.7368 16.2078 10.0415 15.7185 11.3461 15.2293C15.5429 13.6547 19.7398 12.0801 23.9308 10.5055C24.0059 10.4774 24.0751 10.4437 24.1502 10.4212C24.918 10.1512 25.4317 10.528 25.3971 11.4222Z" fill="#378AD7"/>
</svg>
