<svg width="36" height="35" viewBox="0 0 36 35" fill="none" xmlns="http://www.w3.org/2000/svg">
<path d="M17.8457 34.1362C27.4837 34.1362 35.2969 26.5251 35.2969 17.1362C35.2969 7.74739 27.4837 0.13623 17.8457 0.13623C8.20769 0.13623 0.394531 7.74739 0.394531 17.1362C0.394531 26.5251 8.20769 34.1362 17.8457 34.1362Z" fill="#F9F9F9"/>
<path d="M17.9497 25.5771C17.7246 25.5771 17.3955 25.6052 17.0665 25.5715C16.7028 25.5321 16.4546 25.6333 16.2063 25.8976C15.6117 26.5387 14.9767 27.1461 14.3648 27.7759C14.0415 28.1077 13.6836 28.3045 13.216 28.1133C12.7426 27.9165 12.6099 27.5285 12.6214 27.0561C12.6329 26.6568 12.6214 26.2519 12.6214 25.8527C12.6214 25.3747 12.3385 24.9473 11.894 24.7448C10.0179 23.8957 8.62085 22.5516 8.02048 20.5665C7.51247 18.8738 7.42588 17.0968 7.51825 15.3254C7.5702 14.3637 7.70298 13.4077 7.87039 12.4574C8.05512 11.4057 8.54003 10.5116 9.23277 9.71306C10.1968 8.61084 11.3283 7.71107 12.8004 7.39615C15.0113 6.92377 17.257 6.79443 19.5199 6.91815C20.5879 6.97439 21.6443 7.11498 22.7065 7.26119C23.9707 7.43552 25.0329 7.981 25.9797 8.77955C26.9841 9.62308 27.8327 10.6072 28.156 11.8894C28.589 13.5989 28.7391 15.3422 28.6409 17.1024C28.589 18.0753 28.4562 19.0369 28.2888 20.0042C28.0983 21.0783 27.6076 21.9893 26.8918 22.7991C25.9335 23.89 24.7963 24.7504 23.3415 25.0935C22.2793 25.3409 21.194 25.4478 20.103 25.5265C19.4275 25.5659 18.7464 25.6108 17.9497 25.5771ZM13.4296 25.3128C13.4296 25.8583 13.4238 26.3981 13.4296 26.9436C13.4296 27.0786 13.3661 27.2529 13.5624 27.3148C13.7413 27.3766 13.8279 27.2304 13.9318 27.1292C14.994 26.0663 16.062 25.0035 17.1242 23.9294C17.2685 23.7832 17.4128 23.7101 17.6264 23.7157C19.0523 23.7551 20.4667 23.6313 21.881 23.457C22.897 23.3277 23.8322 23.0465 24.6173 22.3773C25.4197 21.6912 26.1413 20.9489 26.378 19.8804C26.9033 17.5073 26.8687 15.1342 26.4415 12.7498C26.1529 11.1583 24.2478 9.42626 22.8219 9.1507C21.5635 8.90889 20.2819 8.77392 18.9946 8.73456C17.2743 8.68395 15.5598 8.78517 13.8626 9.06635C12.0037 9.37564 10.803 10.4779 9.98324 12.0412C9.91974 12.1649 9.86778 12.2999 9.83892 12.4405C9.39441 14.4425 9.30204 16.4613 9.56759 18.4914C9.65419 19.1494 9.69459 19.8298 9.98901 20.4315C10.6529 21.7756 11.7035 22.7316 13.1525 23.2377C13.3661 23.3108 13.4411 23.3952 13.4411 23.6089C13.418 24.1825 13.4238 24.7504 13.4296 25.3128Z" fill="#378AD7"/>
<path d="M16.4435 14.0206C16.4204 14.358 16.2934 14.6054 16.0394 14.791C15.8374 14.9372 15.618 15.0722 15.5199 15.3027C15.4448 15.4714 15.4737 15.6458 15.5372 15.8201C16.0567 17.1866 16.9457 18.2045 18.3485 18.7725C18.9604 19.0199 19.1971 18.9637 19.607 18.4463C20.04 17.9008 20.4498 17.8221 21.0444 18.2157C21.3446 18.4126 21.6448 18.6206 21.9392 18.8287C22.8051 19.4417 22.8802 20.7014 22.0431 21.3537C22.0373 21.3593 22.0316 21.3593 22.0258 21.3649C21.5813 21.708 21.1252 21.8429 20.548 21.6124C18.718 20.8813 17.0323 19.9366 15.6411 18.5532C14.2383 17.1641 13.3262 15.4714 12.6219 13.6663C12.5122 13.3851 12.5757 13.1152 12.7085 12.8621C12.8932 12.5078 13.1415 12.2267 13.4416 11.9961C14.0247 11.5518 14.8733 11.6699 15.3409 12.2323C15.7277 12.699 16.0683 13.1939 16.3627 13.7281C16.4146 13.8237 16.4262 13.9418 16.4435 14.0206Z" fill="#378AD7"/>
<path d="M18.2612 10.9443C20.6973 11.0006 22.8333 12.8282 23.2143 15.1957C23.2778 15.5781 23.3067 15.9662 23.3471 16.3486C23.3702 16.5566 23.3182 16.7535 23.0757 16.7647C22.8102 16.7816 22.7525 16.5735 22.7351 16.3598C22.7005 15.8762 22.6774 15.3869 22.5504 14.9146C22.0597 13.07 20.478 11.7654 18.5383 11.6023C18.3594 11.5854 18.1746 11.5629 17.9957 11.5461C17.7994 11.5236 17.6147 11.4561 17.632 11.2368C17.6493 11.0343 17.8052 10.9387 18.0188 10.95C18.0996 10.9443 18.1804 10.9443 18.2612 10.9443Z" fill="#378AD7"/>
<path d="M21.9849 15.6741C21.9849 15.7809 21.9906 15.8484 21.9849 15.9159C21.9733 16.1127 21.8694 16.242 21.6674 16.2364C21.4884 16.2308 21.3787 16.1014 21.3787 15.9271C21.373 15.6178 21.3499 15.3085 21.2691 15.0105C20.9285 13.7845 19.9644 13.031 18.5385 12.8792C18.3653 12.8623 18.1921 12.8567 18.1113 12.6655C18.019 12.4461 18.1979 12.2606 18.4923 12.2774C19.9875 12.373 21.5519 13.2334 21.9098 15.123C21.9502 15.3198 22.0022 15.5166 21.9849 15.6741Z" fill="#378AD7"/>
<path d="M20.6228 15.3815C20.6343 15.5671 20.6343 15.7695 20.3919 15.792C20.1032 15.8201 20.0455 15.5952 20.0109 15.3759C19.9127 14.7348 19.6125 14.3692 19.0988 14.2793C18.9891 14.2568 18.8736 14.2624 18.7639 14.2399C18.5908 14.2005 18.4695 14.1049 18.4984 13.9137C18.5273 13.7282 18.66 13.6663 18.839 13.6663C19.8261 13.6382 20.5939 14.3805 20.6228 15.3815Z" fill="#378AD7"/>
</svg>
