<svg width="36" height="35" viewBox="0 0 36 35" fill="none" xmlns="http://www.w3.org/2000/svg">
<path d="M17.8061 34.08C27.4282 34.08 35.2284 26.4814 35.2284 17.1081C35.2284 7.7348 27.4282 0.13623 17.8061 0.13623C8.18403 0.13623 0.383789 7.7348 0.383789 17.1081C0.383789 26.4814 8.18403 34.08 17.8061 34.08Z" fill="#F9F9F9"/>
<path d="M18.1521 26.9937C16.5646 27.005 15.0579 26.6732 13.6204 26.0153C13.453 25.9365 13.2971 25.9309 13.1066 25.9759C11.4383 26.3695 9.76996 26.7463 8.10162 27.1231C7.59939 27.2356 7.37425 27.0275 7.47816 26.527C7.66866 25.6385 7.85916 24.75 8.04967 23.8671C8.21708 23.0966 8.37872 22.3262 8.54035 21.5558C8.58076 21.3758 8.5519 21.2184 8.47108 21.0497C6.43328 16.8264 7.40889 11.9395 10.9592 8.79593C12.7314 7.22696 14.8385 6.34969 17.2342 6.13037C22.372 5.66924 27.2269 8.91965 28.5547 13.9077C30.1076 19.7394 26.3206 25.6104 20.2938 26.7913C19.5895 26.9263 18.8737 26.9994 18.1521 26.9937ZM10.3357 24.2776C11.3402 24.047 12.2811 23.8446 13.2106 23.6084C13.5396 23.524 13.8052 23.5634 14.0996 23.7152C16.0104 24.6937 18.0251 25.0143 20.1379 24.4969C24.6927 23.3778 27.3712 19.1601 26.3495 14.6838C25.4547 10.7529 21.61 7.88492 17.1592 8.39666C14.6884 8.68346 12.7025 9.85316 11.2651 11.8383C10.0124 13.5647 9.55637 15.4992 9.81614 17.6024C9.95469 18.7046 10.3415 19.7225 10.8841 20.6897C10.988 20.8753 11.0227 21.0497 10.9765 21.2521C10.9188 21.4995 10.8668 21.7414 10.8148 21.9888C10.659 22.7367 10.5031 23.479 10.3357 24.2776Z" fill="#378AD7"/>
<path d="M20.9806 21.6352C19.8029 21.6071 18.7292 21.236 17.7478 20.6286C15.9293 19.4983 14.3649 18.1149 13.3316 16.2366C12.8755 15.3987 12.6158 14.5046 12.8063 13.5486C12.9794 12.6882 13.5625 12.0921 14.261 11.6028C14.6131 11.3554 15.1038 11.5072 15.2943 11.8952C15.6234 12.5644 15.9236 13.2449 16.2238 13.931C16.3277 14.1728 16.2757 14.4033 16.1198 14.617C15.9871 14.797 15.8485 14.9657 15.7158 15.1456C15.4444 15.5056 15.4329 15.8036 15.6869 16.1691C16.0217 16.6415 16.4316 17.052 16.8645 17.4401C17.4938 18.0024 18.1403 18.5535 18.8908 18.964C19.4508 19.2677 19.7279 19.2283 20.1781 18.7897C20.3051 18.666 20.4321 18.5366 20.5649 18.4186C20.767 18.233 21.0152 18.1655 21.2865 18.2386C21.9677 18.4242 22.6431 18.6098 23.3185 18.8066C23.9016 18.9753 24.1152 19.5095 23.7804 19.9988C23.3012 20.7017 22.7643 21.3484 21.8522 21.5452C21.5636 21.6015 21.275 21.6465 20.9806 21.6352Z" fill="#378AD7"/>
</svg>
